<svg width="83" height="83" viewBox="0 0 83 83" fill="none" xmlns="http://www.w3.org/2000/svg">
<path d="M11.3252 82L1 74.4908L1 1L74.5509 1L82 9.3802L82 82L11.3252 82Z" fill="white" stroke="#D7BF9B" stroke-width="2"/>
<path fill-rule="evenodd" clip-rule="evenodd" d="M75 -0.000125377L-4.85052e-08 -0.00012207L0 74.9999L75 74.9999L75 -0.000125377ZM64.8514 27.9659L64.8514 28.23C64.8514 37.3678 59.5089 43.2837 51.437 46.3472L67 66.9999L47.0236 66.9999L33.8415 48.9354L25.189 48.9354L25.189 66.9999L8 66.9999L8 7.99988L38.4872 7.99988C48.0108 7.99988 54.8051 10.2711 59.1604 14.3383C62.877 17.6659 64.8514 22.2085 64.8514 27.9659ZM37.7323 36.4699C43.9459 36.4699 47.6043 33.5648 47.6043 29.1807L47.6043 29.0223C47.6043 24.1628 43.7716 21.6274 37.5581 21.6274L25.247 21.6274L25.247 36.4699L37.7323 36.4699Z" fill="#D7BF9B"/>
</svg>
