<svg width="18" height="18" viewBox="0 0 18 18" fill="none" xmlns="http://www.w3.org/2000/svg">
<path d="M15.4997 1.5003H13.9993V0H12.9994V1.5003H4.99975V0H3.9998V1.5003H2.50032C1.12172 1.5003 0 2.62196 0 4.00049V15.4998C0 16.8783 1.12172 18 2.50032 18H15.4997C16.8783 18 18 16.8783 18 15.4998V6.4998V5.4999V3.9996C17.9991 2.62107 16.8774 1.5003 15.4997 1.5003ZM16.9992 15.4989C16.9992 16.3255 16.3263 16.9983 15.4997 16.9983H2.50032C1.67281 16.9983 0.999951 16.3255 0.999951 15.4989V6.4998H16.9992V15.4989ZM16.9992 5.4999H0.999951V3.9996C0.999951 3.17213 1.67281 2.49931 2.50032 2.49931H4.00069V3.49921H4.99975V2.5002H12.9994V3.5001H13.9993V2.5002H15.4997C16.3263 2.5002 16.9992 3.17213 16.9992 3.9996V5.4999Z" fill="#979797"/>
</svg>
