<svg width="19" height="19" viewBox="0 0 19 19" fill="none" xmlns="http://www.w3.org/2000/svg">
<path d="M11.8649 9.62059C12.8313 8.61619 13.4353 6.99489 13.4353 5.19534C13.4353 1.93491 11.4978 0.475586 9.57822 0.475586C7.65869 0.475586 5.72275 1.93491 5.72275 5.19534C5.72275 6.98249 6.32119 8.59681 7.27822 9.60354C3.11807 10.1553 0.510254 12.3091 0.510254 15.3199C0.510254 18.1014 2.78525 18.3223 5.75869 18.3223C6.25791 18.3223 6.79619 18.3145 7.37275 18.3076C8.6915 18.2897 10.3095 18.2897 11.6282 18.3076C12.2048 18.3153 12.7438 18.3223 13.2431 18.3223C13.2431 18.3223 13.2431 18.3223 13.2438 18.3223C14.897 18.3223 16.0985 18.2456 16.9759 17.8635C17.9954 17.4202 18.4892 16.5878 18.4892 15.3199C18.4899 12.3501 15.9376 10.2042 11.8642 9.62059H11.8649ZM16.5446 16.8854C15.6048 17.2946 13.9134 17.2706 11.6446 17.2388C10.9806 17.2303 10.2657 17.221 9.50088 17.221C8.73603 17.221 8.02275 17.2303 7.35869 17.2388C6.7876 17.2474 6.254 17.2536 5.75869 17.2536C2.40635 17.2536 1.58838 16.8746 1.58838 15.3199C1.58838 12.5811 4.4376 10.7064 8.84775 10.5452C9.10635 10.5351 9.32197 10.3444 9.36025 10.0902C9.39853 9.83604 9.24932 9.59036 9.00557 9.50666C7.72744 9.06414 6.80088 7.25141 6.80088 5.19611C6.80088 2.97806 7.8915 1.54586 9.57978 1.54586C11.2681 1.54586 12.3595 2.97884 12.3595 5.19611C12.3595 7.25839 11.429 9.07189 10.147 9.50821C9.90166 9.59191 9.75166 9.83526 9.78916 10.0902C9.82666 10.3452 10.0392 10.5366 10.2978 10.5483C14.622 10.7428 17.4157 12.6167 17.4149 15.3199C17.4142 16.3639 16.9962 16.6886 16.5454 16.8862L16.5446 16.8854Z" fill="#979797"/>
</svg>
