<svg width="18" height="18" viewBox="0 0 18 18" fill="none" xmlns="http://www.w3.org/2000/svg">
<path d="M7.09348 3.4314C6.97649 2.49837 5.01153 0.0790071 4.13157 0.00491042C3.63929 -0.0257927 3.14872 0.0879731 2.71894 0.332507C1.88906 0.774299 0.879872 1.51435 0.495709 2.17171C-0.908011 4.57262 0.743602 8.90919 4.51222 12.7174C7.38253 15.6178 10.5556 17.2775 12.9552 17.2773C13.6521 17.2946 14.3407 17.1216 14.9483 16.7764C15.5989 16.3879 16.3313 15.3681 16.7685 14.5297C17.0102 14.0953 17.1228 13.5997 17.0926 13.1024C17.0191 12.213 14.6252 10.2274 13.7016 10.1092C13.4806 10.0807 12.8063 9.99512 10.7937 11.7862C10.7683 11.8084 10.736 11.8209 10.7024 11.8215C10.6688 11.8222 10.636 11.811 10.6098 11.7898C9.65524 11.0163 8.74543 10.1881 7.88481 9.30929C7.0151 8.43974 6.19554 7.52042 5.43018 6.55588C5.40915 6.52943 5.39798 6.49636 5.39863 6.46244C5.39927 6.42852 5.41169 6.39591 5.4337 6.3703C7.20677 4.33578 7.12147 3.65502 7.09348 3.4314ZM4.68559 7.15084C5.47377 8.14461 6.31784 9.09177 7.21363 9.98762C8.10024 10.8928 9.03761 11.7458 10.0211 12.5423C10.2216 12.7029 10.4716 12.7872 10.7274 12.7806C10.9831 12.774 11.2285 12.677 11.4207 12.5064C12.8002 11.2789 13.4571 11.0484 13.5824 11.0608C14.1066 11.1279 15.9836 12.6947 16.1479 13.1985C16.1575 13.508 16.0816 13.8142 15.9286 14.0825C15.5064 14.8922 14.8638 15.7126 14.4655 15.9505C12.8165 16.9352 9.003 15.8988 5.1834 12.0392C1.36416 8.17962 0.338668 4.32604 1.313 2.65958C1.54827 2.25723 2.36018 1.60785 3.16133 1.18124C3.40366 1.04251 3.67576 0.965475 3.95414 0.956777C3.98177 0.956777 4.0092 0.957714 4.03628 0.95959C4.53484 1.12549 6.08523 3.02231 6.15161 3.55178C6.1657 3.68677 5.93596 4.34252 4.72135 5.73628C4.55232 5.93046 4.45614 6.17847 4.44961 6.437C4.44307 6.69554 4.52659 6.94818 4.68559 7.15084Z" fill="#979797"/>
</svg>
