<svg width="14" height="10" viewBox="0 0 14 10" fill="none" xmlns="http://www.w3.org/2000/svg">
<path d="M0.919785 0.357422C0.570758 0.357422 0.279785 0.648398 0.279785 0.997422V8.99742C0.279785 9.34645 0.570758 9.63742 0.919785 9.63742H13.0798C13.4288 9.63742 13.7198 9.34645 13.7198 8.99742V0.997422C13.7198 0.648398 13.4288 0.357422 13.0798 0.357422H0.919785H0.919785ZM1.23979 0.997422H12.7598L7.25979 6.18243C7.13668 6.29842 6.86289 6.29842 6.73979 6.18243L1.23979 0.997422H1.23979ZM0.919785 1.57742L4.65979 5.09742L0.919785 8.57742V1.57742ZM13.0798 1.57742V8.57742L9.33979 5.09742L13.0798 1.57742ZM5.12479 5.53742L6.29979 6.64742C6.69124 7.01627 7.30833 7.01627 7.69979 6.64742L8.87479 5.53742L12.5898 8.99742H1.40979L5.12479 5.53742Z" fill="#979797"/>
</svg>
