<svg width="13" height="14" viewBox="0 0 13 14" fill="none" xmlns="http://www.w3.org/2000/svg">
<path d="M5.39353 3.5788C5.30458 2.8768 3.81052 1.05651 3.14144 1.00076C2.76713 0.977664 2.39413 1.06326 2.06735 1.24724C1.43635 1.57964 0.669011 2.13644 0.376912 2.63102C-0.690407 4.43743 0.565398 7.70019 3.43087 10.5654C5.61331 12.7476 8.02596 13.9963 9.85047 13.9962C10.3803 14.0092 10.9039 13.879 11.366 13.6193C11.8606 13.327 12.4175 12.5597 12.7499 11.9289C12.9337 11.6022 13.0193 11.2293 12.9963 10.8551C12.9405 10.1859 11.1202 8.69195 10.418 8.60307C10.25 8.58164 9.73727 8.51722 8.20698 9.86478C8.18765 9.88148 8.16309 9.8909 8.13755 9.8914C8.11201 9.8919 8.0871 9.88345 8.06713 9.86752C7.34137 9.28555 6.64959 8.66243 5.99522 8.00122C5.33393 7.34698 4.71078 6.6553 4.12884 5.9296C4.11285 5.9097 4.10436 5.88482 4.10485 5.8593C4.10534 5.83378 4.11478 5.80924 4.13152 5.78997C5.47967 4.25924 5.41482 3.74704 5.39353 3.5788ZM3.56269 6.37724C4.16198 7.12493 4.80378 7.83756 5.48489 8.51158C6.15902 9.19265 6.87175 9.83442 7.61954 10.4337C7.77204 10.5545 7.96208 10.6179 8.15655 10.613C8.35103 10.608 8.5376 10.535 8.68376 10.4066C9.73262 9.48312 10.2321 9.30966 10.3274 9.31903C10.7259 9.3695 12.1532 10.5483 12.2781 10.9274C12.2854 11.1603 12.2276 11.3906 12.1113 11.5925C11.7903 12.2017 11.3017 12.819 10.9989 12.9979C9.74502 13.7388 6.84544 12.959 3.9412 10.0552C1.03724 7.15127 0.257506 4.25191 0.998338 2.99809C1.17723 2.69537 1.79456 2.20679 2.40372 1.88581C2.58798 1.78144 2.79487 1.72348 3.00653 1.71693C3.02754 1.71693 3.0484 1.71764 3.06899 1.71905C3.44807 1.84387 4.62691 3.271 4.67738 3.66937C4.68809 3.77093 4.51341 4.2643 3.58988 5.31294C3.46136 5.45905 3.38823 5.64564 3.38326 5.84016C3.37829 6.03468 3.4418 6.22476 3.56269 6.37724Z" fill="#979797"/>
</svg>
