<svg width="13" height="19" viewBox="0 0 13 19" fill="none" xmlns="http://www.w3.org/2000/svg">
<path d="M6.50001 18.0638C6.60151 18.0638 6.69601 18.0187 6.76251 17.9459C6.98651 17.6894 12.24 11.6643 12.24 6.4158C12.24 3.27847 9.66401 0.730469 6.50001 0.730469C3.33601 0.730469 0.76001 3.27847 0.76001 6.4158C0.76001 11.6643 6.01001 17.6929 6.23401 17.9459C6.30401 18.0222 6.39851 18.0638 6.50001 18.0638ZM6.50001 1.4238C9.27901 1.4238 11.54 3.66327 11.54 6.4158C11.54 10.7526 7.57451 15.8729 6.50001 17.1763C5.42901 15.8729 1.46001 10.7526 1.46001 6.4158C1.46001 3.66327 3.72101 1.4238 6.50001 1.4238Z" fill="#979797"/>
<path d="M9.59759 6.4159C9.59759 4.72417 8.20809 3.3479 6.50009 3.3479C4.79209 3.3479 3.40259 4.72417 3.40259 6.4159C3.40259 8.10763 4.79209 9.4839 6.50009 9.4839C8.20809 9.4839 9.59759 8.10763 9.59759 6.4159ZM4.10259 6.4159C4.10259 5.1055 5.17709 4.04123 6.50009 4.04123C7.82309 4.04123 8.89759 5.1055 8.89759 6.4159C8.89759 7.7263 7.82309 8.79057 6.50009 8.79057C5.17709 8.79057 4.10259 7.72283 4.10259 6.4159Z" fill="#979797"/>
</svg>
