<svg width="14" height="14" viewBox="0 0 14 14" fill="none" xmlns="http://www.w3.org/2000/svg">
<path d="M6.6 0.99707C2.96027 0.99707 0 3.83892 0 7.33307C0 10.8272 2.96027 13.6691 6.6 13.6691C10.2397 13.6691 13.2 10.8272 13.2 7.33307C13.2 3.83892 10.2397 0.99707 6.6 0.99707ZM6.6 1.86107C9.75333 1.86107 12.3 4.30586 12.3 7.33307C12.3 10.3603 9.75333 12.8051 6.6 12.8051C3.44667 12.8051 0.9 10.3603 0.9 7.33307C0.9 4.30586 3.44667 1.86107 6.6 1.86107ZM6.6 2.72507C6.35148 2.72507 6.15 2.91849 6.15 3.15707V7.33307C6.15 7.49284 6.24069 7.63184 6.375 7.70658L9.88125 9.65056C10.0965 9.76987 10.3711 9.6997 10.4953 9.49307C10.6196 9.28646 10.5465 9.02287 10.3313 8.90356L7.05 7.08558V3.15707C7.05 2.91849 6.84854 2.72507 6.6 2.72507Z" fill="#979797"/>
</svg>
