<svg width="81" height="59" viewBox="0 0 81 59" fill="none" xmlns="http://www.w3.org/2000/svg">
<path d="M62.325 8.5L62.3267 8.5C63.235 8.50317 64.1262 8.74705 64.9095 9.20681C65.6923 9.66629 66.3394 10.325 66.7849 11.1158C66.7852 11.1163 66.7854 11.1167 66.7857 11.1172L74.6317 24.8333H77.6667C78.4181 24.8333 79.1388 25.1318 79.6701 25.6632C80.2015 26.1946 80.5 26.9152 80.5 27.6667C80.5 28.4181 80.2015 29.1388 79.6701 29.6701C79.1388 30.2015 78.4181 30.5 77.6667 30.5H75.8333V53.3333C75.8333 54.7036 75.289 56.0178 74.3201 56.9867C73.3511 57.9557 72.037 58.5 70.6667 58.5H63.6667C62.2964 58.5 60.9822 57.9557 60.0133 56.9867C59.0443 56.0178 58.5 54.7036 58.5 53.3333V49.1667H31.5V53.3333C31.5 54.7036 30.9557 56.0178 29.9867 56.9867C29.0178 57.9557 27.7036 58.5 26.3333 58.5H19.3333C17.9631 58.5 16.6489 57.9557 15.68 56.9867C14.711 56.0178 14.1667 54.7036 14.1667 53.3333V30.5H12.3333C11.5819 30.5 10.8612 30.2015 10.3299 29.6701C9.79852 29.1388 9.5 28.4181 9.5 27.6667C9.5 26.9152 9.79852 26.1946 10.3299 25.6632C10.8612 25.1318 11.5819 24.8333 12.3333 24.8333H15.3683L23.2143 11.1172C23.2146 11.1167 23.2149 11.1162 23.2151 11.1157C23.6607 10.3249 24.3077 9.66628 25.0905 9.20681C25.8738 8.74705 26.765 8.50317 27.6733 8.5H27.675L62.325 8.5Z" fill="white"/>
<path d="M62.325 8.5L62.3267 8.5C63.235 8.50317 64.1262 8.74705 64.9095 9.20681C65.6923 9.66629 66.3394 10.325 66.7849 11.1158C66.7852 11.1163 66.7854 11.1167 66.7857 11.1172L74.6317 24.8333H77.6667C78.4181 24.8333 79.1388 25.1318 79.6701 25.6632C80.2015 26.1946 80.5 26.9152 80.5 27.6667C80.5 28.4181 80.2015 29.1388 79.6701 29.6701C79.1388 30.2015 78.4181 30.5 77.6667 30.5H75.8333V53.3333C75.8333 54.7036 75.289 56.0178 74.3201 56.9867C73.3511 57.9557 72.037 58.5 70.6667 58.5H63.6667C62.2964 58.5 60.9822 57.9557 60.0133 56.9867C59.0443 56.0178 58.5 54.7036 58.5 53.3333V49.1667H31.5V53.3333C31.5 54.7036 30.9557 56.0178 29.9867 56.9867C29.0178 57.9557 27.7036 58.5 26.3333 58.5H19.3333C17.9631 58.5 16.6489 57.9557 15.68 56.9867C14.711 56.0178 14.1667 54.7036 14.1667 53.3333V30.5H12.3333C11.5819 30.5 10.8612 30.2015 10.3299 29.6701C9.79852 29.1388 9.5 28.4181 9.5 27.6667C9.5 26.9152 9.79852 26.1946 10.3299 25.6632C10.8612 25.1318 11.5819 24.8333 12.3333 24.8333H15.3683L23.2143 11.1172C23.2146 11.1167 23.2149 11.1162 23.2151 11.1157C23.6607 10.3249 24.3077 9.66628 25.0905 9.20681C25.8738 8.74705 26.765 8.50317 27.6733 8.5H27.675L62.325 8.5Z" fill="url(#paint0_linear_1_2415)"/>
<path d="M62.325 8.5L62.3267 8.5C63.235 8.50317 64.1262 8.74705 64.9095 9.20681C65.6923 9.66629 66.3394 10.325 66.7849 11.1158C66.7852 11.1163 66.7854 11.1167 66.7857 11.1172L74.6317 24.8333H77.6667C78.4181 24.8333 79.1388 25.1318 79.6701 25.6632C80.2015 26.1946 80.5 26.9152 80.5 27.6667C80.5 28.4181 80.2015 29.1388 79.6701 29.6701C79.1388 30.2015 78.4181 30.5 77.6667 30.5H75.8333V53.3333C75.8333 54.7036 75.289 56.0178 74.3201 56.9867C73.3511 57.9557 72.037 58.5 70.6667 58.5H63.6667C62.2964 58.5 60.9822 57.9557 60.0133 56.9867C59.0443 56.0178 58.5 54.7036 58.5 53.3333V49.1667H31.5V53.3333C31.5 54.7036 30.9557 56.0178 29.9867 56.9867C29.0178 57.9557 27.7036 58.5 26.3333 58.5H19.3333C17.9631 58.5 16.6489 57.9557 15.68 56.9867C14.711 56.0178 14.1667 54.7036 14.1667 53.3333V30.5H12.3333C11.5819 30.5 10.8612 30.2015 10.3299 29.6701C9.79852 29.1388 9.5 28.4181 9.5 27.6667C9.5 26.9152 9.79852 26.1946 10.3299 25.6632C10.8612 25.1318 11.5819 24.8333 12.3333 24.8333H15.3683L23.2143 11.1172C23.2146 11.1167 23.2149 11.1162 23.2151 11.1157C23.6607 10.3249 24.3077 9.66628 25.0905 9.20681C25.8738 8.74705 26.765 8.50317 27.6733 8.5H27.675L62.325 8.5Z" stroke="url(#paint1_linear_1_2415)"/>
<path d="M70 18.6667C70 19.2855 69.7542 19.879 69.3166 20.3166C68.879 20.7542 68.2855 21 67.6667 21H65.3333V44.3333C65.3333 45.571 64.8417 46.758 63.9665 47.6332C63.0913 48.5083 61.9043 49 60.6667 49H53.6667C52.429 49 51.242 48.5083 50.3668 47.6332C49.4917 46.758 49 45.571 49 44.3333V39.6667H21V44.3333C21 45.571 20.5083 46.758 19.6332 47.6332C18.758 48.5083 17.571 49 16.3333 49H9.33333C8.09566 49 6.90867 48.5083 6.0335 47.6332C5.15833 46.758 4.66667 45.571 4.66667 44.3333V21H2.33333C1.71449 21 1.121 20.7542 0.683417 20.3166C0.245833 19.879 0 19.2855 0 18.6667C0 18.0478 0.245833 17.4543 0.683417 17.0168C1.121 16.5792 1.71449 16.3333 2.33333 16.3333H5.65833L13.65 2.3625C14.0522 1.64807 14.6366 1.05303 15.3436 0.638019C16.0507 0.223006 16.8551 0.00285549 17.675 0H52.325C53.1448 0.00285549 53.9493 0.223006 54.6563 0.638019C55.3634 1.05303 55.9478 1.64807 56.35 2.3625L64.3417 16.3333H67.6667C68.2855 16.3333 68.879 16.5792 69.3166 17.0168C69.7542 17.4543 70 18.0478 70 18.6667ZM23.3333 28C23.3333 27.3812 23.0875 26.7877 22.6499 26.3501C22.2123 25.9125 21.6188 25.6667 21 25.6667H16.3333C15.7145 25.6667 15.121 25.9125 14.6834 26.3501C14.2458 26.7877 14 27.3812 14 28C14 28.6188 14.2458 29.2123 14.6834 29.6499C15.121 30.0875 15.7145 30.3333 16.3333 30.3333H21C21.6188 30.3333 22.2123 30.0875 22.6499 29.6499C23.0875 29.2123 23.3333 28.6188 23.3333 28ZM56 28C56 27.3812 55.7542 26.7877 55.3166 26.3501C54.879 25.9125 54.2855 25.6667 53.6667 25.6667H49C48.3812 25.6667 47.7877 25.9125 47.3501 26.3501C46.9125 26.7877 46.6667 27.3812 46.6667 28C46.6667 28.6188 46.9125 29.2123 47.3501 29.6499C47.7877 30.0875 48.3812 30.3333 49 30.3333H53.6667C54.2855 30.3333 54.879 30.0875 55.3166 29.6499C55.7542 29.2123 56 28.6188 56 28Z" fill="white"/>
<path d="M70 18.6667C70 19.2855 69.7542 19.879 69.3166 20.3166C68.879 20.7542 68.2855 21 67.6667 21H65.3333V44.3333C65.3333 45.571 64.8417 46.758 63.9665 47.6332C63.0913 48.5083 61.9043 49 60.6667 49H53.6667C52.429 49 51.242 48.5083 50.3668 47.6332C49.4917 46.758 49 45.571 49 44.3333V39.6667H21V44.3333C21 45.571 20.5083 46.758 19.6332 47.6332C18.758 48.5083 17.571 49 16.3333 49H9.33333C8.09566 49 6.90867 48.5083 6.0335 47.6332C5.15833 46.758 4.66667 45.571 4.66667 44.3333V21H2.33333C1.71449 21 1.121 20.7542 0.683417 20.3166C0.245833 19.879 0 19.2855 0 18.6667C0 18.0478 0.245833 17.4543 0.683417 17.0168C1.121 16.5792 1.71449 16.3333 2.33333 16.3333H5.65833L13.65 2.3625C14.0522 1.64807 14.6366 1.05303 15.3436 0.638019C16.0507 0.223006 16.8551 0.00285549 17.675 0H52.325C53.1448 0.00285549 53.9493 0.223006 54.6563 0.638019C55.3634 1.05303 55.9478 1.64807 56.35 2.3625L64.3417 16.3333H67.6667C68.2855 16.3333 68.879 16.5792 69.3166 17.0168C69.7542 17.4543 70 18.0478 70 18.6667ZM23.3333 28C23.3333 27.3812 23.0875 26.7877 22.6499 26.3501C22.2123 25.9125 21.6188 25.6667 21 25.6667H16.3333C15.7145 25.6667 15.121 25.9125 14.6834 26.3501C14.2458 26.7877 14 27.3812 14 28C14 28.6188 14.2458 29.2123 14.6834 29.6499C15.121 30.0875 15.7145 30.3333 16.3333 30.3333H21C21.6188 30.3333 22.2123 30.0875 22.6499 29.6499C23.0875 29.2123 23.3333 28.6188 23.3333 28ZM56 28C56 27.3812 55.7542 26.7877 55.3166 26.3501C54.879 25.9125 54.2855 25.6667 53.6667 25.6667H49C48.3812 25.6667 47.7877 25.9125 47.3501 26.3501C46.9125 26.7877 46.6667 27.3812 46.6667 28C46.6667 28.6188 46.9125 29.2123 47.3501 29.6499C47.7877 30.0875 48.3812 30.3333 49 30.3333H53.6667C54.2855 30.3333 54.879 30.0875 55.3166 29.6499C55.7542 29.2123 56 28.6188 56 28Z" fill="url(#paint2_linear_1_2415)"/>
<defs>
<linearGradient id="paint0_linear_1_2415" x1="10" y1="3.35728" x2="117.657" y2="114.945" gradientUnits="userSpaceOnUse">
<stop offset="0.335355" stop-color="#686868"/>
<stop offset="1"/>
</linearGradient>
<linearGradient id="paint1_linear_1_2415" x1="57.0213" y1="0.065694" x2="30.6347" y2="68.487" gradientUnits="userSpaceOnUse">
<stop stop-color="white"/>
<stop offset="1" stop-opacity="0"/>
</linearGradient>
<linearGradient id="paint2_linear_1_2415" x1="81.7021" y1="80.879" x2="-5.14943" y2="-14.9913" gradientUnits="userSpaceOnUse">
<stop stop-color="#EBDECA"/>
<stop offset="1" stop-color="#D7BA90"/>
</linearGradient>
</defs>
</svg>
