<svg width="66" height="71" viewBox="0 0 66 71" fill="none" xmlns="http://www.w3.org/2000/svg">
<path d="M20.7628 70.4998C20.1473 70.5064 19.5418 70.3276 19.0438 69.9846C18.7412 69.7808 18.4825 69.5232 18.2851 69.2244C18.087 68.9246 17.9548 68.5897 17.8989 68.2387C17.8429 67.8876 17.8647 67.5302 17.9627 67.1877C18.0605 66.8454 18.2317 66.5272 18.4634 66.2504L22.0807 61.9284L19.5642 61.9284L19.5628 61.9284C16.9129 61.921 14.3643 60.9749 12.4756 59.2825C10.5852 57.5885 9.50743 55.2806 9.49902 52.8588V52.857L9.49902 18.5714L9.49902 18.5697C9.50743 16.1478 10.5852 13.84 12.4756 12.1459C14.3643 10.4535 16.9129 9.50739 19.5628 9.5H19.5642L55.4338 9.5L55.4352 9.5C58.0852 9.50739 60.6338 10.4535 62.5224 12.1459C64.4128 13.84 65.4906 16.1478 65.499 18.5697V18.5714L65.499 52.857L65.499 52.8588C65.4906 55.2806 64.4128 57.5885 62.5224 59.2825C60.6338 60.9749 58.0852 61.921 55.4352 61.9284H55.4338H52.9173L56.5346 66.2504C57.0037 66.8108 57.2127 67.5267 57.0992 68.2387C56.9861 68.9481 56.5662 69.5723 55.9546 69.9844C55.4565 70.3275 54.8509 70.5064 54.2353 70.4998M20.7628 70.4998C21.202 70.4994 21.6369 70.4077 22.0338 70.2299C22.4315 70.0517 22.7826 69.7907 23.0564 69.4636L29.363 61.9284H45.635L51.9417 69.4636C52.2154 69.7907 52.5665 70.0517 52.9643 70.2299C53.3611 70.4077 53.796 70.4994 54.2353 70.4998M20.7628 70.4998C20.7638 70.4998 20.7647 70.4998 20.7657 70.4998L20.7599 69.9998V70.4998C20.7608 70.4998 20.7618 70.4998 20.7628 70.4998ZM54.2353 70.4998C54.2362 70.4998 54.2372 70.4998 54.2382 70.4998V69.9998L54.2323 70.4998C54.2333 70.4998 54.2343 70.4998 54.2353 70.4998Z" fill="white"/>
<path d="M20.7628 70.4998C20.1473 70.5064 19.5418 70.3276 19.0438 69.9846C18.7412 69.7808 18.4825 69.5232 18.2851 69.2244C18.087 68.9246 17.9548 68.5897 17.8989 68.2387C17.8429 67.8876 17.8647 67.5302 17.9627 67.1877C18.0605 66.8454 18.2317 66.5272 18.4634 66.2504L22.0807 61.9284L19.5642 61.9284L19.5628 61.9284C16.9129 61.921 14.3643 60.9749 12.4756 59.2825C10.5852 57.5885 9.50743 55.2806 9.49902 52.8588V52.857L9.49902 18.5714L9.49902 18.5697C9.50743 16.1478 10.5852 13.84 12.4756 12.1459C14.3643 10.4535 16.9129 9.50739 19.5628 9.5H19.5642L55.4338 9.5L55.4352 9.5C58.0852 9.50739 60.6338 10.4535 62.5224 12.1459C64.4128 13.84 65.4906 16.1478 65.499 18.5697V18.5714L65.499 52.857L65.499 52.8588C65.4906 55.2806 64.4128 57.5885 62.5224 59.2825C60.6338 60.9749 58.0852 61.921 55.4352 61.9284H55.4338H52.9173L56.5346 66.2504C57.0037 66.8108 57.2127 67.5267 57.0992 68.2387C56.9861 68.9481 56.5662 69.5723 55.9546 69.9844C55.4565 70.3275 54.8509 70.5064 54.2353 70.4998M20.7628 70.4998C21.202 70.4994 21.6369 70.4077 22.0338 70.2299C22.4315 70.0517 22.7826 69.7907 23.0564 69.4636L29.363 61.9284H45.635L51.9417 69.4636C52.2154 69.7907 52.5665 70.0517 52.9643 70.2299C53.3611 70.4077 53.796 70.4994 54.2353 70.4998M20.7628 70.4998C20.7638 70.4998 20.7647 70.4998 20.7657 70.4998L20.7599 69.9998V70.4998C20.7608 70.4998 20.7618 70.4998 20.7628 70.4998ZM54.2353 70.4998C54.2362 70.4998 54.2372 70.4998 54.2382 70.4998V69.9998L54.2323 70.4998C54.2333 70.4998 54.2343 70.4998 54.2353 70.4998Z" fill="url(#paint0_linear_1_2408)"/>
<path d="M20.7628 70.4998C20.1473 70.5064 19.5418 70.3276 19.0438 69.9846C18.7412 69.7808 18.4825 69.5232 18.2851 69.2244C18.087 68.9246 17.9548 68.5897 17.8989 68.2387C17.8429 67.8876 17.8647 67.5302 17.9627 67.1877C18.0605 66.8454 18.2317 66.5272 18.4634 66.2504L22.0807 61.9284L19.5642 61.9284L19.5628 61.9284C16.9129 61.921 14.3643 60.9749 12.4756 59.2825C10.5852 57.5885 9.50743 55.2806 9.49902 52.8588V52.857L9.49902 18.5714L9.49902 18.5697C9.50743 16.1478 10.5852 13.84 12.4756 12.1459C14.3643 10.4535 16.9129 9.50739 19.5628 9.5H19.5642L55.4338 9.5L55.4352 9.5C58.0852 9.50739 60.6338 10.4535 62.5224 12.1459C64.4128 13.84 65.4906 16.1478 65.499 18.5697V18.5714L65.499 52.857L65.499 52.8588C65.4906 55.2806 64.4128 57.5885 62.5224 59.2825C60.6338 60.9749 58.0852 61.921 55.4352 61.9284H55.4338H52.9173L56.5346 66.2504C57.0037 66.8108 57.2127 67.5267 57.0992 68.2387C56.9861 68.9481 56.5662 69.5723 55.9546 69.9844C55.4565 70.3275 54.8509 70.5064 54.2353 70.4998M20.7628 70.4998C21.202 70.4994 21.6369 70.4077 22.0338 70.2299C22.4315 70.0517 22.7826 69.7907 23.0564 69.4636L29.363 61.9284H45.635L51.9417 69.4636C52.2154 69.7907 52.5665 70.0517 52.9643 70.2299C53.3611 70.4077 53.796 70.4994 54.2353 70.4998M20.7628 70.4998C20.7638 70.4998 20.7647 70.4998 20.7657 70.4998L20.7599 69.9998V70.4998C20.7608 70.4998 20.7618 70.4998 20.7628 70.4998ZM54.2353 70.4998C54.2362 70.4998 54.2372 70.4998 54.2382 70.4998V69.9998L54.2323 70.4998C54.2333 70.4998 54.2343 70.4998 54.2353 70.4998Z" stroke="url(#paint1_linear_1_2408)"/>
<path d="M45.4338 0H9.56424C7.02981 0.00706414 4.60144 0.912389 2.80932 2.51831C1.0172 4.12423 0.00690663 6.3003 -0.000976562 8.5714V42.857C0.00690663 45.1281 1.0172 47.3042 2.80932 48.9101C4.60144 50.516 7.02981 51.4214 9.56424 51.4284H13.1512L8.84685 56.5713C8.46632 57.0259 8.30293 57.5974 8.39262 58.16C8.48232 58.7226 8.81774 59.2303 9.32511 59.5713C9.73585 59.8549 10.2414 60.0059 10.7599 59.9998C11.1311 59.9998 11.4973 59.9224 11.8293 59.7736C12.1614 59.6248 12.4502 59.4088 12.6729 59.1427L19.1295 51.4284H35.8686L42.3251 59.1427C42.5479 59.4088 42.8367 59.6248 43.1687 59.7736C43.5008 59.9224 43.8669 59.9998 44.2382 59.9998C44.7566 60.0059 45.2622 59.8549 45.6729 59.5713C45.9242 59.4024 46.1358 59.1909 46.2958 58.9487C46.4558 58.7066 46.561 58.4386 46.6054 58.16C46.6498 57.8814 46.6326 57.5978 46.5546 57.3252C46.4767 57.0526 46.3396 56.7964 46.1512 56.5713L41.8469 51.4284H45.4338C47.9682 51.4214 50.3966 50.516 52.1887 48.9101C53.9809 47.3042 54.9911 45.1281 54.999 42.857V8.5714C54.9911 6.3003 53.9809 4.12423 52.1887 2.51831C50.3966 0.912389 47.9682 0.00706414 45.4338 0ZM14.3469 42.857C13.6374 42.857 12.9439 42.6685 12.354 42.3153C11.7642 41.9621 11.3044 41.4601 11.0329 40.8728C10.7614 40.2855 10.6904 39.6392 10.8288 39.0157C10.9672 38.3922 11.3088 37.8194 11.8105 37.3699C12.3121 36.9204 12.9513 36.6143 13.6471 36.4902C14.3429 36.3662 15.0641 36.4299 15.7195 36.6731C16.375 36.9164 16.9352 37.3284 17.3293 37.857C17.7234 38.3856 17.9338 39.007 17.9338 39.6427C17.9338 40.4952 17.5559 41.3128 16.8832 41.9156C16.2105 42.5184 15.2982 42.857 14.3469 42.857ZM25.1077 25.7142H4.78163V15H25.1077V25.7142ZM40.6512 42.857C39.9418 42.857 39.2483 42.6685 38.6584 42.3153C38.0685 41.9621 37.6088 41.4601 37.3373 40.8728C37.0658 40.2855 36.9948 39.6392 37.1332 39.0157C37.2716 38.3922 37.6132 37.8194 38.1148 37.3699C38.6165 36.9204 39.2556 36.6143 39.9514 36.4902C40.6472 36.3662 41.3684 36.4299 42.0239 36.6731C42.6793 36.9164 43.2395 37.3284 43.6336 37.857C44.0278 38.3856 44.2382 39.007 44.2382 39.6427C44.2382 40.4952 43.8602 41.3128 43.1876 41.9156C42.5149 42.5184 41.6025 42.857 40.6512 42.857ZM50.2164 25.7142H29.8903V15H50.2164V25.7142Z" fill="white"/>
<path d="M45.4338 0H9.56424C7.02981 0.00706414 4.60144 0.912389 2.80932 2.51831C1.0172 4.12423 0.00690663 6.3003 -0.000976562 8.5714V42.857C0.00690663 45.1281 1.0172 47.3042 2.80932 48.9101C4.60144 50.516 7.02981 51.4214 9.56424 51.4284H13.1512L8.84685 56.5713C8.46632 57.0259 8.30293 57.5974 8.39262 58.16C8.48232 58.7226 8.81774 59.2303 9.32511 59.5713C9.73585 59.8549 10.2414 60.0059 10.7599 59.9998C11.1311 59.9998 11.4973 59.9224 11.8293 59.7736C12.1614 59.6248 12.4502 59.4088 12.6729 59.1427L19.1295 51.4284H35.8686L42.3251 59.1427C42.5479 59.4088 42.8367 59.6248 43.1687 59.7736C43.5008 59.9224 43.8669 59.9998 44.2382 59.9998C44.7566 60.0059 45.2622 59.8549 45.6729 59.5713C45.9242 59.4024 46.1358 59.1909 46.2958 58.9487C46.4558 58.7066 46.561 58.4386 46.6054 58.16C46.6498 57.8814 46.6326 57.5978 46.5546 57.3252C46.4767 57.0526 46.3396 56.7964 46.1512 56.5713L41.8469 51.4284H45.4338C47.9682 51.4214 50.3966 50.516 52.1887 48.9101C53.9809 47.3042 54.9911 45.1281 54.999 42.857V8.5714C54.9911 6.3003 53.9809 4.12423 52.1887 2.51831C50.3966 0.912389 47.9682 0.00706414 45.4338 0ZM14.3469 42.857C13.6374 42.857 12.9439 42.6685 12.354 42.3153C11.7642 41.9621 11.3044 41.4601 11.0329 40.8728C10.7614 40.2855 10.6904 39.6392 10.8288 39.0157C10.9672 38.3922 11.3088 37.8194 11.8105 37.3699C12.3121 36.9204 12.9513 36.6143 13.6471 36.4902C14.3429 36.3662 15.0641 36.4299 15.7195 36.6731C16.375 36.9164 16.9352 37.3284 17.3293 37.857C17.7234 38.3856 17.9338 39.007 17.9338 39.6427C17.9338 40.4952 17.5559 41.3128 16.8832 41.9156C16.2105 42.5184 15.2982 42.857 14.3469 42.857ZM25.1077 25.7142H4.78163V15H25.1077V25.7142ZM40.6512 42.857C39.9418 42.857 39.2483 42.6685 38.6584 42.3153C38.0685 41.9621 37.6088 41.4601 37.3373 40.8728C37.0658 40.2855 36.9948 39.6392 37.1332 39.0157C37.2716 38.3922 37.6132 37.8194 38.1148 37.3699C38.6165 36.9204 39.2556 36.6143 39.9514 36.4902C40.6472 36.3662 41.3684 36.4299 42.0239 36.6731C42.6793 36.9164 43.2395 37.3284 43.6336 37.857C44.0278 38.3856 44.2382 39.007 44.2382 39.6427C44.2382 40.4952 43.8602 41.3128 43.1876 41.9156C42.5149 42.5184 41.6025 42.857 40.6512 42.857ZM50.2164 25.7142H29.8903V15H50.2164V25.7142Z" fill="url(#paint2_linear_1_2408)"/>
<defs>
<linearGradient id="paint0_linear_1_2408" x1="9.99902" y1="3.09055" x2="131.651" y2="84.0002" gradientUnits="userSpaceOnUse">
<stop offset="0.335355" stop-color="#686868"/>
<stop offset="1"/>
</linearGradient>
<linearGradient id="paint1_linear_1_2408" x1="46.9443" y1="-0.939966" x2="4.45119" y2="69.7627" gradientUnits="userSpaceOnUse">
<stop stop-color="white"/>
<stop offset="1" stop-opacity="0"/>
</linearGradient>
<linearGradient id="paint2_linear_1_2408" x1="64.1935" y1="99.0355" x2="-36.6192" y2="27.63" gradientUnits="userSpaceOnUse">
<stop stop-color="#EBDECA"/>
<stop offset="1" stop-color="#D7BA90"/>
</linearGradient>
</defs>
</svg>
