<svg width="120" height="87" viewBox="0 0 120 87" fill="none" xmlns="http://www.w3.org/2000/svg">
<path d="M25.612 85.8408C25.728 85.7358 25.8545 85.6226 25.9906 85.5023C26.7611 84.8214 27.8436 83.9125 29.0898 83.0025C30.3345 82.0936 31.7522 81.1764 33.1928 80.4848C34.6268 79.7964 36.1218 79.3125 37.5111 79.3125C40.0764 79.3125 53.8391 79.3594 66.9586 79.4063C73.5188 79.4297 79.9187 79.4531 84.6786 79.4707L90.4034 79.4919L91.9965 79.4979L92.415 79.4995L92.5221 79.4999L92.5492 79.5L92.556 79.5L92.5564 79.5H92.5577H93.0618L93.0623 38.9999V38.9999V38.5H23.4984C19.1301 38.5 15.5907 41.9822 15.5907 46.2525V79.5H17.1028H25.1512H25.6545L25.6512 80.0033L25.612 85.8408ZM71.6418 58.9035C71.6418 61.0092 69.9016 62.7045 67.7815 62.7045C65.6587 62.7045 63.9185 61.0064 63.9185 58.9035C63.9185 56.8031 65.6589 55.1053 67.7815 55.1053C69.9016 55.1053 71.6418 56.8034 71.6418 58.9035ZM58.1867 58.9035C58.1867 61.0092 56.4466 62.7045 54.3265 62.7045C52.2061 62.7045 50.4662 61.0062 50.4662 58.9035C50.4662 56.8034 52.2064 55.1053 54.3265 55.1053C56.4466 55.1053 58.1867 56.8034 58.1867 58.9035ZM44.7317 58.9035C44.7317 61.0089 42.9946 62.7045 40.8714 62.7045C38.7511 62.7045 37.0111 61.0062 37.0111 58.9035C37.0111 56.8034 38.7513 55.1053 40.8714 55.1053C42.9946 55.1053 44.7317 56.8036 44.7317 58.9035Z" fill="url(#paint0_linear_1_3806)" stroke="#343443"/>
<path d="M70.0639 21.9996H8.40767C3.77224 21.9996 0 21.9995 0 21.9995V63.8121C0 63.8121 3.77224 63.8121 8.40767 63.8121C8.40767 63.8121 50.923 63.8121 56.0511 63.8121C61.1792 63.8121 68.458 70.9996 68.458 70.9996V63.8121H70.0639C74.6993 63.8121 78.4715 63.8121 78.4715 63.8121V21.9995C78.4715 21.9995 74.6993 21.9996 70.0639 21.9996ZM25.7807 46.2041C23.9282 46.2041 22.4204 44.7242 22.4204 42.9031C22.4204 41.0876 23.9282 39.6049 25.7807 39.6049C27.636 39.6049 29.1438 41.0876 29.1438 42.9031C29.1438 44.7214 27.636 46.2041 25.7807 46.2041ZM39.2358 46.2041C37.3833 46.2041 35.8755 44.7242 35.8755 42.9031C35.8755 41.0876 37.3833 39.6049 39.2358 39.6049C41.0883 39.6049 42.596 41.0876 42.596 42.9031C42.596 44.7214 41.0883 46.2041 39.2358 46.2041ZM52.6908 46.2041C50.8355 46.2041 49.3306 44.7242 49.3306 42.9031C49.3306 41.0876 50.8355 39.6049 52.6908 39.6049C54.5433 39.6049 56.0511 41.0876 56.0511 42.9031C56.0511 44.7214 54.5433 46.2041 52.6908 46.2041Z" fill="white"/>
<path d="M70.0639 21.9996H8.40767C3.77224 21.9996 0 21.9995 0 21.9995V63.8121C0 63.8121 3.77224 63.8121 8.40767 63.8121C8.40767 63.8121 50.923 63.8121 56.0511 63.8121C61.1792 63.8121 68.458 70.9996 68.458 70.9996V63.8121H70.0639C74.6993 63.8121 78.4715 63.8121 78.4715 63.8121V21.9995C78.4715 21.9995 74.6993 21.9996 70.0639 21.9996ZM25.7807 46.2041C23.9282 46.2041 22.4204 44.7242 22.4204 42.9031C22.4204 41.0876 23.9282 39.6049 25.7807 39.6049C27.636 39.6049 29.1438 41.0876 29.1438 42.9031C29.1438 44.7214 27.636 46.2041 25.7807 46.2041ZM39.2358 46.2041C37.3833 46.2041 35.8755 44.7242 35.8755 42.9031C35.8755 41.0876 37.3833 39.6049 39.2358 39.6049C41.0883 39.6049 42.596 41.0876 42.596 42.9031C42.596 44.7214 41.0883 46.2041 39.2358 46.2041ZM52.6908 46.2041C50.8355 46.2041 49.3306 44.7242 49.3306 42.9031C49.3306 41.0876 50.8355 39.6049 52.6908 39.6049C54.5433 39.6049 56.0511 41.0876 56.0511 42.9031C56.0511 44.7214 54.5433 46.2041 52.6908 46.2041Z" fill="url(#paint1_linear_1_3806)"/>
<path d="M103.259 24.398C103.676 23.8874 104.168 23.516 104.72 23.3028C105.273 23.0896 105.811 22.9904 106.334 23.0051C106.858 23.0199 107.367 23.0535 107.875 23.0872C108.383 23.1208 108.875 23.0783 109.342 22.9691C109.817 22.8505 110.202 22.6115 110.51 22.2333C110.835 21.8361 110.951 21.3654 110.86 20.8212C110.768 20.2769 110.456 19.7902 109.943 19.3763C109.392 18.9318 108.826 18.6792 108.221 18.6297C107.623 18.5708 107.158 18.6192 106.827 18.7919L106.348 19.0322L104.78 16.0111C104.876 15.9319 105.016 15.8568 105.197 15.7514C105.377 15.6461 105.746 15.504 106.303 15.3422C106.859 15.1632 107.424 15.0698 107.996 15.045C108.568 15.0201 109.249 15.1309 110.05 15.385C110.842 15.6314 111.6 16.0545 112.331 16.6446C113.699 17.7483 114.512 19.0309 114.768 20.4924C115.015 21.9463 114.703 23.2161 113.839 24.2751C113.306 24.9276 112.704 25.4142 112.049 25.7332C111.395 26.0522 110.761 26.2307 110.156 26.2763C109.559 26.3124 108.978 26.3296 108.412 26.3279C107.839 26.3357 107.282 26.4196 106.735 26.6062C106.179 26.7852 105.733 27.0998 105.371 27.5442L102.739 25.4212C102.868 24.9924 103.043 24.6628 103.259 24.398ZM100.211 27.7262C100.527 27.3386 100.957 27.1208 101.493 27.0824C102.036 27.0345 102.522 27.1916 102.95 27.5364C103.378 27.8813 103.632 28.3221 103.697 28.8605C103.769 29.3894 103.644 29.8524 103.327 30.2401C103.011 30.6278 102.581 30.8456 102.037 30.8934C101.502 30.9319 101.008 30.7842 100.58 30.4394C100.152 30.0945 99.9054 29.6443 99.833 29.1153C99.7683 28.577 99.8942 28.1139 100.211 27.7262Z" fill="url(#paint2_linear_1_3806)"/>
<path d="M109.342 22.9691L109.571 23.9398L109.578 23.938L109.585 23.9362L109.342 22.9691ZM108.221 18.6297L108.12 19.622L108.129 19.6228L108.137 19.6235L108.221 18.6297ZM106.827 18.7919L107.278 19.6824L107.286 19.6783L107.294 19.6742L106.827 18.7919ZM106.348 19.0322L105.456 19.4902L105.911 20.3667L106.798 19.9226L106.348 19.0322ZM104.78 16.0111L104.141 15.2436L103.519 15.756L103.889 16.4691L104.78 16.0111ZM106.303 15.3422L106.583 16.2993L106.597 16.2952L106.611 16.2907L106.303 15.3422ZM110.05 15.385L109.744 16.335L109.75 16.3366L110.05 15.385ZM114.768 20.4924L115.757 20.3252L115.756 20.3199L114.768 20.4924ZM110.156 26.2763L110.216 27.2715L110.223 27.2711L110.231 27.2705L110.156 26.2763ZM108.412 26.3279L108.416 25.3308L108.408 25.3308L108.4 25.3309L108.412 26.3279ZM106.735 26.6062L107.043 27.5548L107.052 27.5521L107.06 27.5492L106.735 26.6062ZM105.371 27.5442L104.738 28.3188L105.516 28.9467L106.149 28.1721L105.371 27.5442ZM102.739 25.4212L101.778 25.1356L101.585 25.7754L102.106 26.1958L102.739 25.4212ZM101.493 27.0824L101.564 28.0769L101.572 28.0763L101.58 28.0756L101.493 27.0824ZM103.697 28.8605L102.701 28.98L102.702 28.9881L102.703 28.9962L103.697 28.8605ZM102.037 30.8934L102.108 31.888L102.116 31.8874L102.125 31.8867L102.037 30.8934ZM99.833 29.1153L98.8372 29.2348L98.8381 29.243L98.8392 29.251L99.833 29.1153ZM104.037 25.0259C104.359 24.6313 104.714 24.3745 105.082 24.2323L104.358 22.3734C103.622 22.6576 102.992 23.1435 102.481 23.7702L104.037 25.0259ZM105.082 24.2323C105.526 24.061 105.931 23.9913 106.305 24.0019L106.364 22.0084C105.69 21.9895 105.019 22.1183 104.358 22.3734L105.082 24.2323ZM106.305 24.0019C106.806 24.016 107.296 24.0482 107.807 24.0821L107.943 22.0923C107.437 22.0588 106.91 22.0238 106.364 22.0084L106.305 24.0019ZM107.807 24.0821C108.415 24.1223 109.006 24.0716 109.571 23.9398L109.114 21.9985C108.743 22.085 108.352 22.1193 107.943 22.0923L107.807 24.0821ZM109.585 23.9362C110.265 23.7664 110.839 23.4115 111.289 22.8611L109.732 21.6054C109.564 21.8115 109.369 21.9346 109.099 22.0021L109.585 23.9362ZM111.289 22.8611C111.81 22.2225 111.983 21.4568 111.849 20.6557L109.87 20.9866C109.919 21.2741 109.859 21.4497 109.732 21.6054L111.289 22.8611ZM111.849 20.6557C111.709 19.8234 111.236 19.1344 110.576 18.6017L109.311 20.1509C109.677 20.4459 109.827 20.7305 109.87 20.9866L111.849 20.6557ZM110.576 18.6017C109.905 18.0604 109.153 17.7053 108.304 17.6359L108.137 19.6235C108.5 19.6531 108.88 19.8032 109.311 20.1509L110.576 18.6017ZM108.321 17.6375C107.652 17.5716 106.95 17.6013 106.361 17.9097L107.294 19.6742C107.365 19.637 107.593 19.57 108.12 19.622L108.321 17.6375ZM106.377 17.9015L105.897 18.1418L106.798 19.9226L107.278 19.6824L106.377 17.9015ZM107.239 18.5742L105.671 15.5531L103.889 16.4691L105.456 19.4902L107.239 18.5742ZM105.419 16.7787C105.409 16.7871 105.417 16.7789 105.475 16.7442C105.501 16.7283 105.532 16.7104 105.572 16.6876C105.609 16.666 105.656 16.6393 105.704 16.6113L104.69 14.8916C104.574 14.9595 104.319 15.0966 104.141 15.2436L105.419 16.7787ZM105.704 16.6113C105.722 16.6008 105.797 16.5623 105.961 16.5012C106.115 16.4434 106.322 16.3752 106.583 16.2993L106.023 14.385C105.46 14.5486 104.987 14.7186 104.69 14.8916L105.704 16.6113ZM106.611 16.2907C107.073 16.1419 107.548 16.0625 108.038 16.0411L107.953 14.0488C107.299 14.0772 106.645 14.1845 105.995 14.3936L106.611 16.2907ZM108.038 16.0411C108.453 16.0231 109.011 16.1024 109.744 16.335L110.356 14.435C109.487 14.1594 108.682 14.0171 107.953 14.0488L108.038 16.0411ZM109.75 16.3366C110.401 16.5393 111.048 16.8945 111.699 17.4192L112.964 15.87C112.151 15.2144 111.283 14.7235 110.351 14.4334L109.75 16.3366ZM111.699 17.4192C112.915 18.4004 113.573 19.4818 113.78 20.665L115.756 20.3199C115.451 18.5799 114.484 17.0962 112.964 15.87L111.699 17.4192ZM113.779 20.6597C113.983 21.8572 113.727 22.8309 113.06 23.6473L114.617 24.903C115.68 23.6013 116.048 22.0355 115.757 20.3252L113.779 20.6597ZM113.06 23.6473C112.608 24.2017 112.117 24.5904 111.609 24.838L112.49 26.6284C113.291 26.238 114.004 25.6535 114.617 24.903L113.06 23.6473ZM111.609 24.838C111.051 25.1097 110.541 25.2474 110.082 25.282L110.231 27.2705C110.981 27.214 111.739 26.9947 112.49 26.6284L111.609 24.838ZM110.097 25.281C109.52 25.3159 108.96 25.3324 108.416 25.3308L108.408 27.325C108.996 27.3268 109.599 27.3089 110.216 27.2715L110.097 25.281ZM108.4 25.3309C107.735 25.3399 107.07 25.4377 106.41 25.6632L107.06 27.5492C107.493 27.4014 107.942 27.3315 108.425 27.3249L108.4 25.3309ZM106.427 25.6576C105.678 25.8989 105.071 26.3295 104.592 26.9164L106.149 28.1721C106.395 27.8701 106.681 27.6714 107.043 27.5548L106.427 25.6576ZM106.003 26.7696L103.371 24.6466L102.106 26.1958L104.738 28.3188L106.003 26.7696ZM103.699 25.7069C103.797 25.3831 103.916 25.1746 104.037 25.0259L102.481 23.7702C102.17 24.151 101.939 24.6018 101.778 25.1356L103.699 25.7069ZM100.989 28.3541C101.12 28.1938 101.287 28.0967 101.564 28.0769L101.422 26.0878C100.627 26.1448 99.9346 26.4833 99.4324 27.0984L100.989 28.3541ZM101.58 28.0756C101.85 28.0518 102.081 28.1202 102.318 28.3111L103.582 26.7618C102.964 26.2629 102.222 26.0172 101.405 26.0891L101.58 28.0756ZM102.318 28.3111C102.554 28.5019 102.669 28.7125 102.701 28.98L104.693 28.741C104.596 27.9316 104.201 27.2608 103.582 26.7618L102.318 28.3111ZM102.703 28.9962C102.741 29.2695 102.68 29.452 102.549 29.6123L104.105 30.868C104.608 30.2528 104.798 29.5093 104.691 28.7248L102.703 28.9962ZM102.549 29.6123C102.419 29.7709 102.249 29.8739 101.95 29.9002L102.125 31.8867C102.912 31.8172 103.602 31.4847 104.105 30.868L102.549 29.6123ZM101.966 29.8989C101.679 29.9195 101.438 29.8466 101.212 29.6647L99.9475 31.214C100.577 31.7219 101.324 31.9442 102.108 31.888L101.966 29.8989ZM101.212 29.6647C100.987 29.4829 100.866 29.2632 100.827 28.9796L98.8392 29.251C98.9453 30.0253 99.3179 30.706 99.9475 31.214L101.212 29.6647ZM100.829 28.9958C100.793 28.6997 100.859 28.5128 100.989 28.3541L99.4324 27.0984C98.9288 27.7151 98.7433 28.4542 98.8372 29.2348L100.829 28.9958Z" fill="#343443"/>
<path d="M90.1419 14.6362C90.2043 14.2031 90.3527 13.8297 90.605 13.5026C90.8495 13.1743 91.1305 12.9223 91.4423 12.7299C91.753 12.5452 92.0637 12.3606 92.3745 12.1759C92.6841 11.999 92.9606 11.7779 93.1951 11.5192C93.4296 11.2606 93.5758 10.9579 93.6259 10.6099C93.6893 10.1691 93.5725 9.77374 93.2767 9.41605C92.9809 9.05835 92.57 8.84212 92.0363 8.76624C91.696 8.71786 91.3777 8.73574 91.0837 8.80442C90.7896 8.87309 90.5541 8.97376 90.3772 9.10643C90.2003 9.23909 90.0476 9.36732 89.9326 9.50878C89.8097 9.64915 89.7201 9.77844 89.6736 9.8823L89.5883 10.0359L88.2453 9.27681C88.2708 9.20941 88.315 9.12101 88.3715 9.00279C88.4191 8.89119 88.5652 8.6989 88.7942 8.42371C89.0222 8.15625 89.2688 7.92302 89.5497 7.72622C89.8218 7.53606 90.1999 7.37675 90.6918 7.2494C91.1748 7.12869 91.6998 7.10074 92.2644 7.18101C93.3009 7.32835 94.1083 7.75089 94.6966 8.43425C95.2773 9.11651 95.5152 9.87632 95.3973 10.696C95.3127 11.2837 95.1332 11.7632 94.8643 12.1511C94.5877 12.5379 94.2857 12.8264 93.9484 13.0309C93.6112 13.2355 93.2761 13.4246 92.9356 13.5971C92.595 13.7697 92.3008 14.004 92.0453 14.2991C91.782 14.5931 91.6258 14.9655 91.5624 15.4063L91.5401 15.5609L90.1169 15.3586C90.1006 15.088 90.1108 14.8527 90.1419 14.6362ZM89.5027 17.3782C89.5428 17.0998 89.6778 16.8744 89.9167 16.6953C90.1467 16.5228 90.4021 16.4486 90.6805 16.4882C90.9513 16.5267 91.1755 16.669 91.3554 16.8998C91.5264 17.1372 91.6002 17.3923 91.5602 17.6707C91.5201 17.949 91.3773 18.1734 91.1473 18.3458C90.9095 18.5172 90.6553 18.5836 90.3846 18.5452C90.1061 18.5056 89.8808 18.371 89.7086 18.1413C89.5287 17.9106 89.4627 17.6566 89.5027 17.3782Z" fill="#DCC29D"/>
<defs>
<linearGradient id="paint0_linear_1_3806" x1="92.7146" y1="40.2791" x2="6.8427" y2="50.0857" gradientUnits="userSpaceOnUse">
<stop stop-color="#3F3F51"/>
<stop offset="1" stop-color="#252532"/>
</linearGradient>
<linearGradient id="paint1_linear_1_3806" x1="91.5898" y1="102.879" x2="6.25782" y2="-2.71346" gradientUnits="userSpaceOnUse">
<stop stop-color="#EBDECA"/>
<stop offset="1" stop-color="#D7BA90"/>
</linearGradient>
<linearGradient id="paint2_linear_1_3806" x1="108.474" y1="10.9352" x2="120.107" y2="21.2682" gradientUnits="userSpaceOnUse">
<stop stop-color="#3F3F51"/>
<stop offset="1" stop-color="#252532"/>
</linearGradient>
</defs>
</svg>
