<svg width="25" height="25" viewBox="0 0 25 25" fill="none" xmlns="http://www.w3.org/2000/svg">
<path fill-rule="evenodd" clip-rule="evenodd" d="M25 12.5C25 19.4036 19.4036 25 12.5 25C5.59646 25 0 19.4036 0 12.5C0 5.59645 5.59646 0 12.5 0C19.4036 0 25 5.59645 25 12.5ZM9.64632 15.1259C9.64632 14.963 9.72559 14.963 9.80486 14.963H12.9756L13.0549 15.2889H13.2134L13.7683 16.4296C13.7683 16.5111 13.7683 16.6741 13.6097 16.6741C13.4628 16.7244 13.4067 16.7126 13.3852 16.7346C13.3719 16.7482 13.3719 16.7747 13.3719 16.837C13.3719 17 13.5305 17 13.689 17H18.6037C18.8415 17 19 16.9185 19 16.837C19 16.7556 18.8415 16.6741 18.6037 16.6741C18.2866 16.5926 17.9695 16.5111 17.811 16.2667C17.6524 16.0222 17.4146 15.6148 17.0975 14.8815C15.5122 11.5407 14.3232 9.0963 13.5305 7.54816C13.3637 7.23951 13.2249 7.00303 13.1143 6.81441C12.962 6.5549 12.8629 6.38601 12.817 6.24445C12.7378 6 12.5793 6 12.5 6C12.4207 6 12.2622 6.16296 12.1037 6.40741C11.9451 6.65185 11.7073 7.05926 11.3902 7.62963L7.50611 15.3704C7.26831 15.8593 7.03047 16.1852 6.87193 16.3482C6.71339 16.5111 6.5549 16.5926 6.31709 16.5926C6.07929 16.5926 6 16.5926 6 16.7556C6 16.9185 6.15854 16.9185 6.39634 16.9185H7.42682H8.14025H9.24998H10.2012C10.439 16.9185 10.5975 16.9185 10.5975 16.7556C10.5975 16.5926 10.439 16.5926 10.2012 16.5926C9.98982 16.5926 9.81367 16.5202 9.69624 16.4719C9.63753 16.4477 9.59349 16.4296 9.56707 16.4296L9.56705 16.4296C9.40853 16.3482 9.40852 16.3481 9.40852 16.1037C9.40852 15.8593 9.48778 15.6148 9.64632 15.1259ZM11.3902 11.0519L12.4207 13.3333H10.3597H10.2805V13.2519L11.311 11.0519H11.3902Z" fill="#AE2627"/>
</svg>
