<svg width="25" height="25" viewBox="0 0 25 25" fill="none" xmlns="http://www.w3.org/2000/svg">
<path fill-rule="evenodd" clip-rule="evenodd" d="M25 12.5C25 19.4036 19.4035 25 12.5 25C5.59641 25 0 19.4036 0 12.5C0 5.59644 5.59641 0 12.5 0C19.4035 0 25 5.59644 25 12.5ZM10.471 8.46312C9.78548 7.34427 9.1 6.22541 8.3871 5.10656L8.27745 5C7.40031 8.83483 6.41352 12.6697 5.42674 16.5045L5.42579 16.5082H4V17.8934H9.70324V16.5082H8.71612C8.88063 15.9221 9.07257 15.3627 9.2645 14.8033C9.45644 14.2439 9.64837 13.6844 9.81289 13.0984C10.2516 13.8975 10.7177 14.6967 11.1839 15.4959C11.65 16.2951 12.1161 17.0943 12.5548 17.8934C12.8688 17.3597 13.1827 16.8122 13.5017 16.256C14.0742 15.2578 14.6629 14.2314 15.2968 13.2049C15.4613 13.791 15.6532 14.3504 15.8451 14.9099C16.0371 15.4693 16.229 16.0287 16.3935 16.6148H15.4065V18H21V16.6148H19.5742L19.5737 16.6128C18.5868 12.7774 17.5998 8.94198 16.5033 5.10656C16.3936 5.21312 16.2839 5.42623 16.2839 5.53279C15.6807 6.59836 15.05 7.6373 14.4194 8.67624C13.7887 9.71518 13.1581 10.7541 12.5548 11.8197C11.8419 10.7008 11.1564 9.58198 10.471 8.46312Z" fill="#BE9E6E"/>
</svg>
