<svg width="296" height="52" viewBox="0 0 296 52" fill="none" xmlns="http://www.w3.org/2000/svg">
<path d="M85.2697 20.8991V20.6926C85.2697 16.1906 83.8712 12.6386 81.2386 10.0365C78.1536 6.85624 73.3409 5.08022 66.5949 5.08022H44.9995V51.2153H57.1752V37.0898H63.3042L72.6416 51.2153H86.7917L75.7678 35.0659C81.4854 32.6704 85.2697 28.0445 85.2697 20.8991ZM73.0529 21.6426C73.0529 25.0707 70.4615 27.3423 66.0601 27.3423H57.2163V15.7363H65.9367C70.3381 15.7363 73.0529 17.7188 73.0529 21.5187V21.6426ZM104.274 15.1994C98.1447 15.1994 93.9902 16.2732 90.0002 17.9253L92.5916 26.5576C95.7589 25.2772 98.5972 24.5751 102.382 24.5751C107.194 24.5751 109.58 26.6815 109.58 30.5226V31.1009C107.441 30.3574 104.356 29.6966 100.983 29.6966C92.6327 29.6966 87.0385 33.4551 87.0385 40.9309V41.0548C87.0385 48.0763 92.2214 52 98.9674 52C103.698 52 107.03 50.224 109.498 47.498V51.2566H121.221V30.7705C121.221 25.8141 120.069 22.0969 117.437 19.4122C114.681 16.645 110.444 15.1994 104.274 15.1994ZM109.703 38.4527C109.703 42.0048 106.989 44.4003 103.122 44.4003C100.489 44.4003 98.5149 42.8721 98.5149 40.394V40.2701C98.5149 37.4615 100.736 35.7268 104.52 35.7268C106.495 35.7268 108.305 36.1811 109.703 36.8006V38.4527ZM201.679 28.0445V51.2566H189.668V31.8856C189.668 27.838 187.652 25.6076 184.444 25.6076C181.277 25.6076 179.014 27.838 179.014 31.8856V51.2566H167.085V15.6124H179.014V20.61C181.277 17.6775 184.485 14.9102 189.545 14.9102C197.113 14.9102 201.679 19.9492 201.679 28.0445ZM221.3 15.1994C215.171 15.1994 211.017 16.2732 207.027 17.9253L209.618 26.5576C212.785 25.2772 215.624 24.5751 219.408 24.5751C224.221 24.5751 226.606 26.6815 226.606 30.5226V31.1009C224.467 30.3574 221.382 29.6966 218.009 29.6966C209.659 29.6966 204.065 33.4551 204.065 40.9309V41.0548C204.065 48.0763 209.248 52 215.994 52C220.724 52 224.056 50.224 226.524 47.498V51.2566H238.247V30.7705C238.247 25.8141 237.096 22.0969 234.463 19.4122C231.707 16.645 227.47 15.1994 221.3 15.1994ZM226.73 38.4527C226.73 42.0048 224.015 44.4003 220.148 44.4003C217.516 44.4003 215.541 42.8721 215.541 40.394V40.2701C215.541 37.4615 217.763 35.7268 221.547 35.7268C223.521 35.7268 225.331 36.1811 226.73 36.8006V38.4527ZM267.74 20.0731C265.396 17.3471 262.187 14.9516 256.84 14.9516C248.449 14.9516 241.127 21.8491 241.127 33.4551V33.579C241.127 45.1025 248.49 52 256.922 52C262.228 52 265.313 49.4805 267.782 46.4241V51.2566H279.71V0.289119H267.782V20.0731H267.74ZM267.946 33.4964C267.946 38.494 264.614 41.9222 260.419 41.9222C256.264 41.9222 252.85 38.494 252.85 33.4964V33.3725C252.85 28.3749 256.264 24.9468 260.419 24.9468C264.573 24.9468 267.946 28.4162 267.946 33.3725V33.4964ZM296 39.2788V51.2566H284.071V39.2788H296ZM139.32 15.6124H162.232V51.2153H150.303V24.9468H139.567V51.2566H127.597V25.112H123.442V15.6124H127.597V12.1017C127.597 8.05401 128.543 5.08022 130.558 2.97379C132.492 1.03257 135.165 0.123908 138.826 0H145.901V11.9778H139.361C139.361 12.1017 139.361 12.2669 139.361 12.4321V15.6124H139.32ZM162.232 12.0191H150.303V0.0413036H162.232V12.0191Z" fill="#151515"/>
<path d="M174.86 1.73438C174.819 1.73438 173.38 1.94089 172.68 4.83207C172.516 5.45161 172.351 5.94724 172.31 6.36027C172.269 6.64939 172.228 6.8972 172.187 7.14502C172.146 6.8972 172.146 6.64939 172.063 6.36027C171.981 5.94724 171.816 5.41031 171.693 4.83207C170.994 1.94089 169.595 1.73438 169.513 1.73438H168.731L167.909 8.71452H169.184L169.842 3.51039C170.253 4.33644 170.459 5.36901 170.665 6.27766C171.117 8.21889 171.611 8.67321 171.611 8.67321H172.063H172.516C172.516 8.67321 173.009 8.17758 173.462 6.27766C173.667 5.36901 173.873 4.29514 174.284 3.51039L174.943 8.71452H176.218L175.395 1.73438H174.86Z" fill="#151515"/>
<path d="M215.994 1.73438H215.747H215.254L212.827 8.67322H214.184L215.871 3.6343L217.557 8.67322H218.873L216.488 1.73438H215.994Z" fill="#151515"/>
<path d="M189.423 4.62584C189.218 4.50194 188.93 4.37803 188.518 4.37803H187.325C186.791 4.37803 186.503 4.21282 186.338 4.13021V1.69336H185.022V8.6735H186.338V5.32799C186.544 5.4932 186.873 5.65841 187.325 5.65841H188.518C188.93 5.65841 189.218 5.78232 189.423 5.86492V8.71481H190.74V1.73466H189.423V4.62584Z" fill="#151515"/>
<path d="M182.47 1.73438C181.359 2.0648 180.825 3.22127 180.331 4.21253C179.879 5.16249 179.426 6.40157 179.097 7.10372V1.73438H177.781V8.71452H178.562H178.809C178.809 8.71452 179.837 8.59061 180.742 6.40157C180.989 5.82333 181.73 4.08862 181.73 4.08862C181.73 4.08862 181.935 3.59299 182.141 3.17997V8.75582H183.457V1.73438H182.676C182.635 1.73438 182.552 1.73438 182.47 1.73438Z" fill="#151515"/>
<path d="M196.951 1.73438C195.84 2.0648 195.305 3.22127 194.812 4.21253C194.359 5.16249 193.907 6.40157 193.578 7.10372V1.73438H192.261V8.71452H193.043H193.29C193.29 8.71452 194.318 8.59061 195.223 6.40157C195.47 5.82333 196.21 4.08862 196.21 4.08862C196.21 4.08862 196.416 3.59299 196.621 3.17997V8.75582H197.938V1.73438H197.156C197.115 1.73438 197.033 1.73438 196.951 1.73438Z" fill="#151515"/>
<path d="M224.469 1.73438C223.358 2.0648 222.824 3.22127 222.33 4.21253C221.878 5.16249 221.425 6.40157 221.096 7.10372V1.73438H219.78V8.71452H220.561H220.808C220.808 8.71452 221.836 8.59061 222.741 6.40157C222.988 5.82333 223.729 4.08862 223.729 4.08862C223.729 4.08862 223.934 3.59299 224.14 3.17997V8.75582H225.456V1.73438H224.675C224.634 1.73438 224.551 1.73438 224.469 1.73438Z" fill="#151515"/>
<path d="M203.737 1.73438H200.899H200.652H199.583V8.67322H200.899V2.97345H203.737V8.67322H205.053V1.73438H204.519H203.737Z" fill="#151515"/>
<path d="M209.33 1.61084C207.109 1.61084 206.122 3.22164 206.122 5.20417C206.122 7.18669 207.191 8.7975 209.33 8.7975C211.469 8.7975 212.539 7.18669 212.539 5.20417C212.539 3.22164 211.51 1.61084 209.33 1.61084ZM209.33 7.55842C207.973 7.55842 207.438 6.52585 207.438 5.20417C207.438 3.88248 207.973 2.84992 209.33 2.84992C210.688 2.84992 211.222 3.88248 211.222 5.20417C211.222 6.52585 210.688 7.55842 209.33 7.55842Z" fill="#151515"/>
<path d="M231.173 6.44325C231.009 7.10409 230.556 7.55842 229.651 7.55842C228.294 7.55842 227.841 6.52585 227.841 5.20417C227.841 3.88248 228.294 2.84992 229.651 2.84992C230.556 2.84992 230.967 3.30425 231.173 3.96509H232.407C232.078 2.6021 231.214 1.61084 229.61 1.61084C227.389 1.61084 226.525 3.30425 226.525 5.20417C226.525 7.02148 227.471 8.7975 229.61 8.7975C231.255 8.7975 232.119 7.84754 232.407 6.44325H231.173Z" fill="#151515"/>
<rect x="-0.000488281" y="27" width="17" height="17" fill="#141414"/>
<path d="M17.9995 43.5858L17.9995 29.4142L23.9995 35.4142L23.9995 49.5858L17.9995 43.5858Z" fill="white" stroke="#141414" stroke-width="2"/>
<path d="M22.5853 51L8.41372 51L2.41373 45L16.5853 45L22.5853 51Z" fill="white" stroke="#141414" stroke-width="2"/>
</svg>
