<svg width="21" height="18" viewBox="0 0 21 18" fill="none" xmlns="http://www.w3.org/2000/svg">
<path d="M8.74159 15.8472L3.16972 9.89438C7.99984 9.89438 19.2909 9.89438 19.2909 9.89438C19.7734 9.89438 20.165 9.476 20.165 8.9605C20.165 8.445 19.7734 8.02662 19.2909 8.02662C19.2909 8.02662 8.00084 8.02662 3.16972 8.02662L8.74159 2.07382C9.08274 1.70934 9.08274 1.11806 8.74159 0.753051C8.40043 0.388038 7.84699 0.388572 7.50534 0.753051L0.44148 8.29985C0.401022 8.34307 0.364557 8.3911 0.33259 8.44233C0.318105 8.46528 0.308117 8.49036 0.296127 8.51437C0.281143 8.54373 0.264162 8.57201 0.252174 8.60349C0.240186 8.63444 0.233192 8.66646 0.224701 8.69848C0.217209 8.72516 0.207719 8.75025 0.202724 8.778C0.180246 8.8986 0.180246 9.02294 0.202724 9.14408C0.207719 9.17129 0.217209 9.19691 0.224701 9.22359C0.233192 9.25561 0.240186 9.28763 0.252174 9.31858C0.264162 9.35006 0.281143 9.37834 0.296127 9.4077C0.308614 9.43171 0.318105 9.45679 0.33259 9.47974C0.364557 9.53097 0.401022 9.579 0.44148 9.62222L7.50534 17.1679C7.84649 17.5324 8.39993 17.5324 8.74159 17.1679C9.08324 16.8035 9.08274 16.2117 8.74159 15.8472Z" fill="#1C1C25"/>
</svg>
