<svg width="25" height="25" viewBox="0 0 25 25" fill="none" xmlns="http://www.w3.org/2000/svg">
<path d="M25 12.5C25 5.59639 19.4036 -2.44626e-07 12.5 -5.46392e-07C5.59639 -8.48159e-07 1.66272e-06 5.59639 1.36096e-06 12.5C1.05919e-06 19.4036 5.59639 25 12.5 25C19.4036 25 25 19.4036 25 12.5ZM0.972223 12.5C0.972223 6.13333 6.13334 0.972221 12.5 0.972222C18.8667 0.972222 24.0278 6.13333 24.0278 12.5C24.0278 18.8667 18.8667 24.0278 12.5 24.0278C6.13333 24.0278 0.972222 18.8667 0.972223 12.5Z" fill="#D8D1C2"/>
<path d="M11.7026 16.0848L8.60403 12.9862C11.2901 12.9862 17.5693 12.9862 17.5693 12.9862C17.8376 12.9862 18.0554 12.7684 18.0554 12.5001C18.0554 12.2317 17.8376 12.014 17.5693 12.014C17.5693 12.014 11.2907 12.014 8.60403 12.014L11.7026 8.91535C11.8924 8.72562 11.8924 8.41784 11.7026 8.22784C11.5129 8.03784 11.2051 8.03812 11.0151 8.22784L7.08681 12.1562C7.06431 12.1787 7.04403 12.2037 7.02625 12.2303C7.0182 12.2423 7.01264 12.2553 7.00598 12.2678C6.99764 12.2831 6.9882 12.2978 6.98153 12.3142C6.97487 12.3303 6.97098 12.347 6.96625 12.3637C6.96209 12.3776 6.95681 12.3906 6.95403 12.4051C6.94153 12.4678 6.94153 12.5326 6.95403 12.5956C6.95681 12.6098 6.96209 12.6231 6.96625 12.637C6.97098 12.6537 6.97487 12.6703 6.98153 12.6865C6.9882 12.7028 6.99764 12.7176 7.00598 12.7328C7.01292 12.7453 7.0182 12.7584 7.02625 12.7703C7.04403 12.797 7.06431 12.822 7.08681 12.8445L11.0151 16.7723C11.2049 16.962 11.5126 16.962 11.7026 16.7723C11.8926 16.5826 11.8924 16.2745 11.7026 16.0848Z" fill="#A89877"/>
</svg>
