<svg width="42" height="42" viewBox="0 0 42 42" fill="none" xmlns="http://www.w3.org/2000/svg">
<path d="M21 6.67517e-07C32.5981 2.98855e-07 42 9.40193 42 21C42 32.5981 32.5981 42 21 42C9.40194 42 4.85088e-06 32.5981 4.48221e-06 21C4.11355e-06 9.40193 9.40194 1.03618e-06 21 6.67517e-07ZM21 40.3667C31.696 40.3667 40.3667 31.696 40.3667 21C40.3667 10.304 31.696 1.63333 21 1.63333C10.304 1.63333 1.63334 10.304 1.63334 21C1.63334 31.696 10.304 40.3667 21 40.3667Z" fill="#D8D1C2"/>
<path d="M14.9779 22.3392L20.1835 27.5448C20.1835 23.0322 20.1835 12.4832 20.1835 12.4832C20.1835 12.0324 20.5494 11.6665 21.0002 11.6665C21.451 11.6665 21.8169 12.0324 21.8169 12.4832C21.8169 12.4832 21.8169 23.0312 21.8169 27.5448L27.0225 22.3392C27.3413 22.0204 27.8583 22.0204 28.1775 22.3392C28.4967 22.6579 28.4963 23.175 28.1775 23.4942L21.5779 30.0938C21.5401 30.1316 21.4981 30.1656 21.4533 30.1955C21.4333 30.209 21.4113 30.2184 21.3903 30.2296C21.3647 30.2436 21.3399 30.2594 21.3124 30.2706C21.2853 30.2818 21.2573 30.2884 21.2293 30.2963C21.206 30.3033 21.1841 30.3122 21.1598 30.3168C21.0543 30.3378 20.9456 30.3378 20.8397 30.3168C20.8159 30.3122 20.7935 30.3033 20.7701 30.2963C20.7421 30.2884 20.7141 30.2818 20.6871 30.2706C20.6595 30.2594 20.6348 30.2436 20.6091 30.2296C20.5881 30.2179 20.5662 30.209 20.5461 30.1955C20.5013 30.1656 20.4593 30.1316 20.4215 30.0938L13.8229 23.4942C13.5041 23.1754 13.5041 22.6584 13.8229 22.3392C14.1416 22.02 14.6591 22.0204 14.9779 22.3392Z" fill="#A89877"/>
</svg>
