<svg width="1386" height="306" viewBox="0 0 1386 306" fill="none" xmlns="http://www.w3.org/2000/svg">
<path d="M237.801 122.833L237.801 121.619C237.801 95.1594 229.542 74.2826 213.996 58.9891C195.779 40.2971 167.359 29.8587 127.523 29.8587L-0.000488259 29.8587L-0.000488058 301.014H71.8986L71.8986 217.993L108.091 217.993L163.23 301.014L246.788 301.014L181.69 206.098C215.454 192.018 237.801 164.83 237.801 122.833ZM165.659 127.203C165.659 147.351 150.356 160.703 124.365 160.703L72.1415 160.703L72.1415 92.4891H123.637C149.627 92.4891 165.659 104.141 165.659 126.475L165.659 127.203ZM350.022 89.3333C313.829 89.3333 289.296 95.6449 265.735 105.355L281.037 156.091C299.741 148.565 316.501 144.438 338.848 144.438C367.268 144.438 381.356 156.819 381.356 179.395L381.356 182.793C368.725 178.424 350.507 174.54 330.589 174.54C281.28 174.54 248.246 196.63 248.246 240.569L248.246 241.297C248.246 282.565 278.851 305.627 318.687 305.627C346.621 305.627 366.296 295.188 380.87 279.167L380.87 301.257H450.097L450.097 180.851C450.097 151.721 443.296 129.873 427.75 114.094C411.476 97.8297 386.457 89.3333 350.022 89.3333ZM382.085 226.004C382.085 246.88 366.053 260.96 343.22 260.96C327.675 260.96 316.015 251.978 316.015 237.413L316.015 236.685C316.015 220.177 329.132 209.982 351.479 209.982C363.138 209.982 373.826 212.652 382.085 216.293L382.085 226.004ZM925.214 164.83L925.214 301.257L854.287 301.257L854.287 187.406C854.287 163.616 842.385 150.507 823.438 150.507C804.735 150.507 791.375 163.616 791.375 187.406L791.375 301.257H720.933L720.933 91.7608L791.375 91.7608L791.375 121.134C804.735 103.899 823.681 87.634 853.558 87.634C898.252 87.634 925.214 117.25 925.214 164.83ZM1041.08 89.3333C1004.89 89.3333 980.353 95.6449 956.791 105.355L972.094 156.091C990.798 148.565 1007.56 144.438 1029.91 144.438C1058.32 144.438 1072.41 156.819 1072.41 179.395L1072.41 182.793C1059.78 178.424 1041.56 174.54 1021.65 174.54C972.337 174.54 939.302 196.63 939.302 240.569L939.302 241.297C939.302 282.565 969.908 305.627 1009.74 305.627C1037.68 305.627 1057.35 295.188 1071.93 279.167L1071.93 301.257H1141.15L1141.15 180.851C1141.15 151.721 1134.35 129.873 1118.81 114.094C1102.53 97.8297 1077.51 89.3333 1041.08 89.3333ZM1073.14 226.004C1073.14 246.88 1057.11 260.96 1034.28 260.96C1018.73 260.96 1007.07 251.978 1007.07 237.413L1007.07 236.685C1007.07 220.177 1020.19 209.982 1042.54 209.982C1054.2 209.982 1064.88 212.652 1073.14 216.293L1073.14 226.004ZM1315.32 117.978C1301.47 101.956 1282.52 87.8768 1250.95 87.8768C1201.39 87.8768 1158.16 128.417 1158.16 196.63L1158.16 197.359C1158.16 265.087 1201.64 305.627 1251.43 305.627C1282.77 305.627 1300.98 290.819 1315.56 272.855L1315.56 301.257H1386L1386 1.69928L1315.56 1.69928L1315.56 117.978H1315.32ZM1316.53 196.873C1316.53 226.246 1296.85 246.395 1272.08 246.395C1247.55 246.395 1227.38 226.246 1227.38 196.873L1227.38 196.145C1227.38 166.772 1247.55 146.623 1272.08 146.623C1296.61 146.623 1316.53 167.014 1316.53 196.145L1316.53 196.873ZM556.974 91.7608L692.271 91.7608L692.271 301.014H621.829L621.829 146.623L558.432 146.623L558.432 301.257L487.747 301.257L487.747 147.594H463.214L463.214 91.7608L487.747 91.7608L487.747 71.1268C487.747 47.3369 493.334 29.8587 505.236 17.4783C516.653 6.06884 532.441 0.728261 554.06 0L595.839 0L595.839 70.3985L557.217 70.3985C557.217 71.1268 557.217 72.0978 557.217 73.0688L557.217 91.7608H556.974ZM692.271 70.6413L621.829 70.6413L621.829 0.242759L692.271 0.242759L692.271 70.6413Z" fill="url(#paint0_linear_1_1260)" fill-opacity="0.4"/>
<defs>
<linearGradient id="paint0_linear_1_1260" x1="11.3573" y1="4.95786e-07" x2="1482.19" y2="6.3786e-05" gradientUnits="userSpaceOnUse">
<stop stop-color="#E3E3E3"/>
<stop offset="1" stop-color="#EAEAEA"/>
</linearGradient>
</defs>
</svg>
