<svg width="36" height="36" viewBox="0 0 36 36" fill="none" xmlns="http://www.w3.org/2000/svg">
<path d="M26.3344 8.77805C26.7437 9.1873 26.7045 9.90111 26.2655 10.4323L26.1571 10.5514L19.1524 17.5561L26.1571 24.5608C26.6958 25.0995 26.7752 25.8934 26.3344 26.3342C25.9252 26.7434 25.2114 26.7042 24.6802 26.2652L24.5611 26.1568L17.5564 19.1521L10.5517 26.1568C10.013 26.6955 9.21907 26.7749 8.77834 26.3342C8.3691 25.9249 8.40833 25.2111 8.8473 24.6799L8.95568 24.5608L15.9604 17.5561L8.95568 10.5514C8.41701 10.0127 8.33762 9.21878 8.77834 8.77805C9.18759 8.36881 9.9014 8.40803 10.4326 8.84701L10.5517 8.95539L17.5564 15.9601L24.5611 8.95539C25.0998 8.41672 25.8937 8.33733 26.3344 8.77805Z" fill="#CCCCCC"/>
</svg>
