<svg width="83" height="83" viewBox="0 0 83 83" fill="none" xmlns="http://www.w3.org/2000/svg">
<path d="M11.3252 82L1 74.4908L1 1L74.5509 1L82 9.3802L82 82L11.3252 82Z" stroke="#D7BF9B" stroke-width="2"/>
<path fill-rule="evenodd" clip-rule="evenodd" d="M75 -3.30626e-06L-4.85052e-08 0L0 75L75 75L75 -3.30626e-06ZM64.8514 27.966L64.8514 28.2301C64.8514 37.3679 59.5089 43.2838 51.437 46.3474L67 67L47.0236 67L33.8415 48.9355L25.189 48.9355L25.189 67L8 67L8 8L38.4872 8C48.0108 8 54.8051 10.2713 59.1604 14.3384C62.877 17.6661 64.8514 22.2086 64.8514 27.966ZM37.7323 36.47C43.9459 36.47 47.6043 33.5649 47.6043 29.1808L47.6043 29.0224C47.6043 24.1629 43.7716 21.6276 37.5581 21.6276L25.247 21.6276L25.247 36.47L37.7323 36.47Z" fill="#D7BF9B"/>
</svg>
