<svg width="214" height="50" viewBox="0 0 214 50" fill="none" xmlns="http://www.w3.org/2000/svg">
<g filter="url(#filter0_d_1_2514)">
<path d="M37.0495 16.8801V16.7133C37.0495 13.077 35.9017 10.2081 33.7411 8.10643C31.2091 5.53773 27.2593 4.10326 21.7227 4.10326H3.99902V41.3662H13.9918V29.9571H19.022L26.6854 41.3662H38.2986L29.2511 28.3225C33.9436 26.3876 37.0495 22.6513 37.0495 16.8801ZM27.0229 17.4805C27.0229 20.2494 24.8961 22.0842 21.2838 22.0842H14.0256V12.7101H21.1826C24.7948 12.7101 27.0229 14.3114 27.0229 17.3805V17.4805ZM52.6464 12.2764C47.6162 12.2764 44.2065 13.1438 40.9318 14.4782L43.0587 21.4504C45.6581 20.4162 47.9875 19.8491 51.0934 19.8491C55.0433 19.8491 57.0013 21.5504 57.0013 24.6529V25.1199C55.2458 24.5195 52.7139 23.9857 49.9456 23.9857C43.0924 23.9857 38.5012 27.0214 38.5012 33.0596V33.1596C38.5012 38.8308 42.7548 42 48.2914 42C52.1737 42 54.9082 40.5655 56.9338 38.3638V41.3995H66.5552V24.8531C66.5552 20.8499 65.61 17.8475 63.4494 15.6791C61.1875 13.444 57.7103 12.2764 52.6464 12.2764ZM57.1026 31.058C57.1026 33.9269 54.8745 35.8618 51.7011 35.8618C49.5405 35.8618 47.92 34.6275 47.92 32.6259V32.5258C47.92 30.2573 49.743 28.8562 52.8489 28.8562C54.4694 28.8562 55.9548 29.2232 57.1026 29.7236V31.058ZM132.589 22.6513V41.3995H122.731V25.7538C122.731 22.4845 121.077 20.6831 118.443 20.6831C115.844 20.6831 113.987 22.4845 113.987 25.7538V41.3995H104.197V12.61H113.987V16.6465C115.844 14.278 118.477 12.0429 122.63 12.0429C128.841 12.0429 132.589 16.1128 132.589 22.6513ZM148.692 12.2764C143.662 12.2764 140.252 13.1438 136.977 14.4782L139.104 21.4504C141.704 20.4162 144.033 19.8491 147.139 19.8491C151.089 19.8491 153.047 21.5504 153.047 24.6529V25.1199C151.291 24.5195 148.759 23.9857 145.991 23.9857C139.138 23.9857 134.547 27.0214 134.547 33.0596V33.1596C134.547 38.8308 138.8 42 144.337 42C148.219 42 150.954 40.5655 152.979 38.3638V41.3995H162.601V24.8531C162.601 20.8499 161.656 17.8475 159.495 15.6791C157.233 13.444 153.756 12.2764 148.692 12.2764ZM153.148 31.058C153.148 33.9269 150.92 35.8618 147.747 35.8618C145.586 35.8618 143.966 34.6275 143.966 32.6259V32.5258C143.966 30.2573 145.789 28.8562 148.894 28.8562C150.515 28.8562 152 29.2232 153.148 29.7236V31.058ZM186.806 16.2129C184.882 14.0111 182.249 12.0763 177.86 12.0763C170.973 12.0763 164.964 17.6473 164.964 27.0214V27.1215C164.964 36.4289 171.007 42 177.928 42C182.283 42 184.814 39.965 186.84 37.4964V41.3995H196.63V0.233519H186.84V16.2129H186.806ZM186.975 27.0548C186.975 31.0913 184.241 33.8602 180.797 33.8602C177.387 33.8602 174.585 31.0913 174.585 27.0548V26.9547C174.585 22.9182 177.387 20.1493 180.797 20.1493C184.207 20.1493 186.975 22.9515 186.975 26.9547V27.0548ZM209.999 31.7252V41.3995H200.209V31.7252H209.999ZM81.4094 12.61H100.213V41.3662H90.4231V20.1493H81.6119V41.3995H71.7879V20.2828H68.3782V12.61H71.7879V9.77442C71.7879 6.50516 72.5644 4.10326 74.2186 2.40191C75.8053 0.833996 77.9997 0.100079 81.0043 0H86.8109V9.67434H81.4431C81.4431 9.77442 81.4431 9.90786 81.4431 10.0413V12.61H81.4094ZM100.213 9.7077H90.4231V0.0333606H100.213V9.7077Z" fill="#141414"/>
<path d="M110.577 1.40137C110.544 1.40137 109.362 1.56817 108.788 3.90335C108.653 4.40375 108.518 4.80407 108.484 5.13767C108.451 5.37118 108.417 5.57134 108.383 5.7715C108.349 5.57134 108.349 5.37118 108.282 5.13767C108.214 4.80407 108.079 4.37039 107.978 3.90335C107.404 1.56817 106.256 1.40137 106.189 1.40137H105.547L104.872 7.03918H105.919L106.459 2.83584C106.796 3.50304 106.965 4.33703 107.134 5.07095C107.505 6.63886 107.91 7.00582 107.91 7.00582H108.282H108.653C108.653 7.00582 109.058 6.6055 109.43 5.07095C109.598 4.33703 109.767 3.46968 110.105 2.83584L110.645 7.03918H111.691L111.016 1.40137H110.577Z" fill="#141414"/>
<path d="M144.337 1.40137H144.134H143.729L141.737 7.00582H142.851L144.236 2.93592L145.62 7.00582H146.7L144.742 1.40137H144.337Z" fill="#141414"/>
<path d="M122.529 3.73671C122.36 3.63663 122.124 3.53655 121.787 3.53655H120.808C120.369 3.53655 120.132 3.40311 119.997 3.33639V1.36816H118.917V7.00597H119.997V4.30383C120.166 4.43727 120.436 4.57071 120.808 4.57071H121.787C122.124 4.57071 122.36 4.67078 122.529 4.7375V7.03933H123.61V1.40152H122.529V3.73671Z" fill="#141414"/>
<path d="M116.823 1.40137C115.912 1.66825 115.473 2.60232 115.068 3.40296C114.696 4.17023 114.325 5.17103 114.055 5.73814V1.40137H112.975V7.03918H113.616H113.819C113.819 7.03918 114.663 6.9391 115.405 5.17103C115.608 4.70399 116.216 3.30288 116.216 3.30288C116.216 3.30288 116.384 2.90256 116.553 2.56896V7.07254H117.633V1.40137H116.992C116.958 1.40137 116.891 1.40137 116.823 1.40137Z" fill="#141414"/>
<path d="M128.707 1.40137C127.795 1.66825 127.357 2.60232 126.951 3.40296C126.58 4.17023 126.209 5.17103 125.939 5.73814V1.40137H124.858V7.03918H125.5H125.702C125.702 7.03918 126.546 6.9391 127.289 5.17103C127.492 4.70399 128.099 3.30288 128.099 3.30288C128.099 3.30288 128.268 2.90256 128.437 2.56896V7.07254H129.517V1.40137H128.876C128.842 1.40137 128.774 1.40137 128.707 1.40137Z" fill="#141414"/>
<path d="M151.292 1.40137C150.38 1.66825 149.942 2.60232 149.536 3.40296C149.165 4.17023 148.794 5.17103 148.524 5.73814V1.40137H147.443V7.03918H148.085H148.287C148.287 7.03918 149.131 6.9391 149.874 5.17103C150.077 4.70399 150.684 3.30288 150.684 3.30288C150.684 3.30288 150.853 2.90256 151.022 2.56896V7.07254H152.102V1.40137H151.461C151.427 1.40137 151.359 1.40137 151.292 1.40137Z" fill="#141414"/>
<path d="M134.277 1.40137H131.947H131.745H130.867V7.00582H131.947V2.40216H134.277V7.00582H135.357V1.40137H134.918H134.277Z" fill="#141414"/>
<path d="M138.868 1.30127C137.045 1.30127 136.235 2.6023 136.235 4.20357C136.235 5.80484 137.112 7.10588 138.868 7.10588C140.623 7.10588 141.501 5.80484 141.501 4.20357C141.501 2.6023 140.657 1.30127 138.868 1.30127ZM138.868 6.10508C137.754 6.10508 137.315 5.27109 137.315 4.20357C137.315 3.13606 137.754 2.30206 138.868 2.30206C139.982 2.30206 140.421 3.13606 140.421 4.20357C140.421 5.27109 139.982 6.10508 138.868 6.10508Z" fill="#141414"/>
<path d="M156.794 5.20437C156.659 5.73812 156.288 6.10508 155.545 6.10508C154.431 6.10508 154.06 5.27109 154.06 4.20357C154.06 3.13606 154.431 2.30206 155.545 2.30206C156.288 2.30206 156.626 2.66902 156.794 3.20278H157.807C157.537 2.10191 156.828 1.30127 155.511 1.30127C153.688 1.30127 152.979 2.66902 152.979 4.20357C152.979 5.6714 153.756 7.10588 155.511 7.10588C156.862 7.10588 157.571 6.3386 157.807 5.20437H156.794Z" fill="#141414"/>
</g>
<defs>
<filter id="filter0_d_1_2514" x="-0.000976562" y="0" width="214" height="50" filterUnits="userSpaceOnUse" color-interpolation-filters="sRGB">
<feFlood flood-opacity="0" result="BackgroundImageFix"/>
<feColorMatrix in="SourceAlpha" type="matrix" values="0 0 0 0 0 0 0 0 0 0 0 0 0 0 0 0 0 0 127 0" result="hardAlpha"/>
<feOffset dy="4"/>
<feGaussianBlur stdDeviation="2"/>
<feComposite in2="hardAlpha" operator="out"/>
<feColorMatrix type="matrix" values="0 0 0 0 0 0 0 0 0 0 0 0 0 0 0 0 0 0 0.25 0"/>
<feBlend mode="normal" in2="BackgroundImageFix" result="effect1_dropShadow_1_2514"/>
<feBlend mode="normal" in="SourceGraphic" in2="effect1_dropShadow_1_2514" result="shape"/>
</filter>
</defs>
</svg>
