<svg width="560" height="115" viewBox="0 0 560 115" fill="none" xmlns="http://www.w3.org/2000/svg">
<path d="M89.8462 46.2192V45.7625C89.8462 35.8062 86.7259 27.9508 80.8524 22.1962C73.9694 15.1628 63.232 11.2351 48.1812 11.2351H0.000244141V113.265H27.1651V82.0254H40.8393L61.6718 113.265H93.2418L68.6466 77.5496C81.4031 72.2518 89.8462 62.0214 89.8462 46.2192ZM62.5896 47.8634C62.5896 55.4448 56.8078 60.4686 46.9881 60.4686H27.2569V34.8014H46.7128C56.5325 34.8014 62.5896 39.1859 62.5896 47.5894V47.8634ZM132.245 33.614C118.571 33.614 109.302 35.9889 100.4 39.6426L106.182 58.7331C113.248 55.9015 119.581 54.3487 128.024 54.3487C138.761 54.3487 144.084 59.0071 144.084 67.502V68.7808C139.312 67.1366 132.429 65.6751 124.904 65.6751C106.274 65.6751 93.7924 73.9873 93.7924 90.5203V90.7943C93.7924 106.322 105.356 115 120.407 115C130.961 115 138.394 111.072 143.901 105.044V113.356H170.056V68.05C170.056 57.089 167.486 48.8681 161.613 42.9309C155.464 36.811 146.011 33.614 132.245 33.614ZM144.359 85.0397C144.359 92.8952 138.302 98.193 129.676 98.193C123.802 98.193 119.397 94.8133 119.397 89.3328V89.0588C119.397 82.8475 124.353 79.0111 132.796 79.0111C137.201 79.0111 141.239 80.0159 144.359 81.386V85.0397ZM349.564 62.0214V113.356H322.767V70.5163C322.767 61.5647 318.27 56.6322 311.111 56.6322C304.045 56.6322 298.997 61.5647 298.997 70.5163V113.356H272.383V34.5274H298.997V45.5798C304.045 39.0945 311.203 32.9746 322.491 32.9746C339.378 32.9746 349.564 44.1184 349.564 62.0214ZM393.34 33.614C379.666 33.614 370.397 35.9889 361.495 39.6426L367.277 58.7331C374.343 55.9015 380.675 54.3487 389.119 54.3487C399.856 54.3487 405.179 59.0071 405.179 67.502V68.7808C400.407 67.1366 393.524 65.6751 385.998 65.6751C367.368 65.6751 354.887 73.9873 354.887 90.5203V90.7943C354.887 106.322 366.451 115 381.501 115C392.055 115 399.489 111.072 404.995 105.044V113.356H431.151V68.05C431.151 57.089 428.581 48.8681 422.708 42.9309C416.559 36.811 407.106 33.614 393.34 33.614ZM405.454 85.0397C405.454 92.8952 399.397 98.193 390.77 98.193C384.897 98.193 380.492 94.8133 380.492 89.3328V89.0588C380.492 82.8475 385.448 79.0111 393.891 79.0111C398.296 79.0111 402.334 80.0159 405.454 81.386V85.0397ZM496.952 44.3924C491.721 38.3638 484.563 33.0659 472.632 33.0659C453.91 33.0659 437.575 48.3201 437.575 73.9873V74.2613C437.575 99.7458 454.002 115 472.816 115C484.654 115 491.537 109.428 497.044 102.669V113.356H523.658V0.639397H497.044V44.3924H496.952ZM497.411 74.0786C497.411 85.1311 489.977 92.7125 480.616 92.7125C471.347 92.7125 463.73 85.1311 463.73 74.0786V73.8046C463.73 62.7522 471.347 55.1708 480.616 55.1708C489.886 55.1708 497.411 62.8435 497.411 73.8046V74.0786ZM560 86.8666V113.356H533.386V86.8666H560ZM210.436 34.5274H261.554V113.265H234.94V55.1708H210.987V113.356H184.281V55.5361H175.012V34.5274H184.281V26.7633C184.281 17.8118 186.392 11.2351 190.888 6.57665C195.202 2.28356 201.167 0.274027 209.335 0H225.12V26.4893H210.528C210.528 26.7633 210.528 27.1287 210.528 27.494V34.5274H210.436ZM261.554 26.5806H234.94V0.0913444H261.554V26.5806Z" fill="white"/>
<path d="M289.726 3.83643C289.634 3.83643 286.422 4.29314 284.862 10.6871C284.495 12.0572 284.128 13.1533 284.036 14.0668C283.944 14.7062 283.852 15.2542 283.76 15.8023C283.669 15.2542 283.669 14.7062 283.485 14.0668C283.302 13.1533 282.935 11.9659 282.659 10.6871C281.099 4.29314 277.979 3.83643 277.795 3.83643H276.052L274.216 19.2733H277.061L278.529 7.76415C279.447 9.59099 279.906 11.8746 280.365 13.8841C281.374 18.1772 282.476 19.1819 282.476 19.1819H283.485H284.495C284.495 19.1819 285.596 18.0858 286.605 13.8841C287.064 11.8746 287.523 9.49965 288.441 7.76415L289.909 19.2733H292.754L290.919 3.83643H289.726Z" fill="white"/>
<path d="M381.499 3.83643H380.949H379.847L374.433 19.1819H377.461L381.224 8.03818L384.987 19.1819H387.924L382.601 3.83643H381.499Z" fill="white"/>
<path d="M322.215 10.2304C321.757 9.9564 321.114 9.68237 320.196 9.68237H317.535C316.342 9.68237 315.7 9.317 315.333 9.13431V3.74512H312.396V19.182H315.333V11.7832C315.791 12.1486 316.526 12.514 317.535 12.514H320.196C321.114 12.514 321.757 12.788 322.215 12.9707V19.2733H325.152V3.83646H322.215V10.2304Z" fill="white"/>
<path d="M306.707 3.83643C304.229 4.56716 303.036 7.12475 301.934 9.31697C300.925 11.4178 299.915 14.1581 299.181 15.7109V3.83643H296.244V19.2733H297.988H298.539C298.539 19.2733 300.833 18.9993 302.852 14.1581C303.403 12.8793 305.055 9.04294 305.055 9.04294C305.055 9.04294 305.513 7.94683 305.972 7.03341V19.3646H308.909V3.83643H307.165C307.074 3.83643 306.89 3.83643 306.707 3.83643Z" fill="white"/>
<path d="M339.009 3.83643C336.531 4.56716 335.338 7.12475 334.237 9.31697C333.228 11.4178 332.218 14.1581 331.484 15.7109V3.83643H328.547V19.2733H330.291H330.841C330.841 19.2733 333.136 18.9993 335.155 14.1581C335.705 12.8793 337.357 9.04294 337.357 9.04294C337.357 9.04294 337.816 7.94683 338.275 7.03341V19.3646H341.212V3.83643H339.468C339.376 3.83643 339.193 3.83643 339.009 3.83643Z" fill="white"/>
<path d="M400.405 3.83643C397.927 4.56716 396.734 7.12475 395.633 9.31697C394.623 11.4178 393.614 14.1581 392.879 15.7109V3.83643H389.943V19.2733H391.686H392.237C392.237 19.2733 394.531 18.9993 396.55 14.1581C397.101 12.8793 398.753 9.04294 398.753 9.04294C398.753 9.04294 399.212 7.94683 399.671 7.03341V19.3646H402.607V3.83643H400.864C400.772 3.83643 400.588 3.83643 400.405 3.83643Z" fill="white"/>
<path d="M354.15 3.83643H347.818H347.267H344.881V19.1819H347.818V6.5767H354.15V19.1819H357.087V3.83643H355.894H354.15Z" fill="white"/>
<path d="M366.632 3.5625C361.676 3.5625 359.474 7.12485 359.474 11.5093C359.474 15.8937 361.86 19.4561 366.632 19.4561C371.404 19.4561 373.79 15.8937 373.79 11.5093C373.79 7.12485 371.496 3.5625 366.632 3.5625ZM366.632 16.7158C363.604 16.7158 362.411 14.4322 362.411 11.5093C362.411 8.58633 363.604 6.30277 366.632 6.30277C369.661 6.30277 370.854 8.58633 370.854 11.5093C370.854 14.4322 369.661 16.7158 366.632 16.7158Z" fill="white"/>
<path d="M415.365 14.2496C414.998 15.711 413.988 16.7158 411.969 16.7158C408.941 16.7158 407.931 14.4322 407.931 11.5093C407.931 8.58633 408.941 6.30277 411.969 6.30277C413.988 6.30277 414.906 7.30754 415.365 8.76901H418.118C417.384 5.75472 415.457 3.5625 411.877 3.5625C406.922 3.5625 404.994 7.30754 404.994 11.5093C404.994 15.5283 407.105 19.4561 411.877 19.4561C415.548 19.4561 417.476 17.3552 418.118 14.2496H415.365Z" fill="white"/>
</svg>
