<svg width="18" height="18" viewBox="0 0 18 18" fill="none" xmlns="http://www.w3.org/2000/svg">
<path d="M7.46748 3.5747C7.34431 2.6027 5.27561 0.0823064 4.3492 0.00511548C3.83093 -0.0268698 3.31446 0.0916469 2.862 0.346392C1.9883 0.806634 0.925834 1.57759 0.52139 2.2624C-0.956436 4.76357 0.78237 9.28124 4.74995 13.2485C7.77178 16.27 11.1124 17.999 13.6386 17.9988C14.3723 18.0168 15.0973 17.8366 15.737 17.4769C16.4219 17.0722 17.193 16.0099 17.6532 15.1364C17.9078 14.684 18.0263 14.1677 17.9944 13.6495C17.9171 12.723 15.3968 10.6544 14.4245 10.5314C14.1918 10.5017 13.4819 10.4125 11.363 12.2784C11.3363 12.3015 11.3023 12.3145 11.2669 12.3152C11.2315 12.3159 11.197 12.3042 11.1694 12.2822C10.1645 11.4764 9.20664 10.6136 8.30058 9.69805C7.38496 8.79219 6.52213 7.83448 5.71637 6.82965C5.69423 6.8021 5.68247 6.76765 5.68315 6.73232C5.68383 6.69698 5.6969 6.663 5.72008 6.63633C7.58675 4.51685 7.49695 3.80765 7.46748 3.5747ZM4.93247 7.44946C5.76226 8.48473 6.65089 9.47144 7.59397 10.4047C8.52739 11.3477 9.51424 12.2363 10.5496 13.0661C10.7608 13.2333 11.0239 13.3212 11.2932 13.3143C11.5625 13.3075 11.8208 13.2064 12.0232 13.0286C13.4754 11.7499 14.167 11.5097 14.299 11.5227C14.8508 11.5926 16.827 13.2248 16.9999 13.7497C17.01 14.0721 16.9301 14.3911 16.769 14.6706C16.3245 15.5141 15.648 16.3688 15.2287 16.6166C13.4926 17.6425 9.47781 16.5627 5.45656 12.542C1.43569 8.5212 0.356059 4.50669 1.38183 2.77065C1.62952 2.35149 2.48429 1.67499 3.32774 1.23057C3.58286 1.08605 3.86933 1.00579 4.1624 0.996733C4.19149 0.996733 4.22037 0.997709 4.24888 0.999663C4.77376 1.17249 6.406 3.14852 6.47588 3.70011C6.49072 3.84073 6.24885 4.52386 4.97012 5.97582C4.79217 6.17812 4.69091 6.43648 4.68403 6.70581C4.67715 6.97515 4.76507 7.23834 4.93247 7.44946Z" fill="#D9D9D9"/>
</svg>
