<svg width="35" height="28" viewBox="0 0 35 28" fill="none" xmlns="http://www.w3.org/2000/svg">
<g filter="url(#filter0_d_150_244)">
<path d="M33.8333 12.9231H32.1708L28.175 6.47506C27.9739 6.14532 27.6817 5.87069 27.3282 5.67915C26.9746 5.4876 26.5724 5.38599 26.1625 5.38468H22.9542L21.2042 1.35969C21.0376 0.956905 20.7415 0.610783 20.3558 0.36776C19.97 0.124737 19.5129 -0.00356262 19.0458 7.52758e-05H15.9542C15.4871 -0.00356262 15.03 0.124737 14.6442 0.36776C14.2585 0.610783 13.9624 0.956905 13.7958 1.35969L12.0458 5.38468H8.8375C8.42757 5.38599 8.02535 5.4876 7.67182 5.67915C7.31829 5.87069 7.02609 6.14532 6.825 6.47506L2.82917 12.9231H1.16667C0.857247 12.9231 0.560501 13.0366 0.341709 13.2385C0.122916 13.4405 0 13.7144 0 14C0 14.2857 0.122916 14.5596 0.341709 14.7615C0.560501 14.9635 0.857247 15.077 1.16667 15.077H2.33333V25.8462C2.33333 26.4174 2.57917 26.9652 3.01675 27.3692C3.45434 27.7731 4.04783 28 4.66667 28H8.16667C8.7855 28 9.379 27.7731 9.81658 27.3692C10.2542 26.9652 10.5 26.4174 10.5 25.8462V23.6923H24.5V25.8462C24.5 26.4174 24.7458 26.9652 25.1834 27.3692C25.621 27.7731 26.2145 28 26.8333 28H30.3333C30.9522 28 31.5457 27.7731 31.9832 27.3692C32.4208 26.9652 32.6667 26.4174 32.6667 25.8462V15.077H33.8333C34.1428 15.077 34.4395 14.9635 34.6583 14.7615C34.8771 14.5596 35 14.2857 35 14C35 13.7144 34.8771 13.4405 34.6583 13.2385C34.4395 13.0366 34.1428 12.9231 33.8333 12.9231ZM15.9542 2.15392H19.0458L20.4458 5.38468H14.5542L15.9542 2.15392ZM10.5 19.3846H8.16667C7.85725 19.3846 7.5605 19.2712 7.34171 19.0692C7.12292 18.8673 7 18.5933 7 18.3077C7 18.0221 7.12292 17.7482 7.34171 17.5462C7.5605 17.3443 7.85725 17.2308 8.16667 17.2308H10.5C10.8094 17.2308 11.1062 17.3443 11.325 17.5462C11.5437 17.7482 11.6667 18.0221 11.6667 18.3077C11.6667 18.5933 11.5437 18.8673 11.325 19.0692C11.1062 19.2712 10.8094 19.3846 10.5 19.3846ZM26.8333 19.3846H24.5C24.1906 19.3846 23.8938 19.2712 23.675 19.0692C23.4562 18.8673 23.3333 18.5933 23.3333 18.3077C23.3333 18.0221 23.4562 17.7482 23.675 17.5462C23.8938 17.3443 24.1906 17.2308 24.5 17.2308H26.8333C27.1428 17.2308 27.4395 17.3443 27.6583 17.5462C27.8771 17.7482 28 18.0221 28 18.3077C28 18.5933 27.8771 18.8673 27.6583 19.0692C27.4395 19.2712 27.1428 19.3846 26.8333 19.3846Z" fill="white"/>
</g>
<defs>
<filter id="filter0_d_150_244" x="-4" y="-4" width="51" height="44" filterUnits="userSpaceOnUse" color-interpolation-filters="sRGB">
<feFlood flood-opacity="0" result="BackgroundImageFix"/>
<feColorMatrix in="SourceAlpha" type="matrix" values="0 0 0 0 0 0 0 0 0 0 0 0 0 0 0 0 0 0 127 0" result="hardAlpha"/>
<feOffset dx="4" dy="4"/>
<feGaussianBlur stdDeviation="4"/>
<feColorMatrix type="matrix" values="0 0 0 0 0 0 0 0 0 0 0 0 0 0 0 0 0 0 0.04 0"/>
<feBlend mode="normal" in2="BackgroundImageFix" result="effect1_dropShadow_150_244"/>
<feBlend mode="normal" in="SourceGraphic" in2="effect1_dropShadow_150_244" result="shape"/>
</filter>
</defs>
</svg>
