<svg width="220" height="290" viewBox="0 0 220 290" fill="none" xmlns="http://www.w3.org/2000/svg">
<path d="M192.802 74.3126V69.4792C192.802 68.8383 193.057 68.2236 193.51 67.7704C193.964 67.3172 194.579 67.0626 195.22 67.0626H204.89C205.531 67.0626 206.146 67.3172 206.6 67.7704C207.053 68.2236 207.308 68.8383 207.308 69.4792V74.3126H192.802Z" stroke="#946948" stroke-miterlimit="10"/>
<path d="M194.011 63.4376V56.1876C194.011 54.5852 194.648 53.0485 195.781 51.9155C196.915 50.7824 198.452 50.1459 200.055 50.1459C201.658 50.1459 203.195 50.7824 204.329 51.9155C205.462 53.0485 206.099 54.5852 206.099 56.1876V63.4376C206.099 64.399 205.717 65.321 205.037 66.0008C204.357 66.6806 203.434 67.0626 202.473 67.0626H197.637C196.676 67.0626 195.753 66.6806 195.073 66.0008C194.393 65.321 194.011 64.399 194.011 63.4376Z" stroke="#946948" stroke-miterlimit="10"/>
<path d="M200.055 71.8959C200.723 71.8959 201.264 71.3549 201.264 70.6875C201.264 70.0202 200.723 69.4792 200.055 69.4792C199.387 69.4792 198.846 70.0202 198.846 70.6875C198.846 71.3549 199.387 71.8959 200.055 71.8959Z" stroke="#946948" stroke-miterlimit="10"/>
<path d="M167.418 82.7709C168.085 82.7709 168.627 82.2299 168.627 81.5625C168.627 80.8952 168.085 80.3542 167.418 80.3542C166.75 80.3542 166.209 80.8952 166.209 81.5625C166.209 82.2299 166.75 82.7709 167.418 82.7709Z" stroke="#946948" stroke-miterlimit="10"/>
<path d="M156.539 90.0209V77.9375C156.539 76.6557 157.048 75.4263 157.955 74.5199C158.862 73.6134 160.091 73.1042 161.374 73.1042H173.462C174.744 73.1042 175.974 73.6134 176.881 74.5199C177.787 75.4263 178.297 76.6557 178.297 77.9375V90.0209H156.539Z" stroke="#946948" stroke-miterlimit="10"/>
<path d="M160.165 86.3959V81.5625C160.165 80.2807 160.674 79.0513 161.581 78.1449C162.488 77.2384 163.718 76.7292 165 76.7292H169.835C171.118 76.7292 172.348 77.2384 173.254 78.1449C174.161 79.0513 174.671 80.2807 174.671 81.5625V86.3959H160.165Z" stroke="#946948" stroke-miterlimit="10"/>
<path d="M156.539 32.0209L212.143 32.0209V7.85421L156.539 7.85421V32.0209Z" stroke="#946948" stroke-miterlimit="10"/>
<path d="M203.681 28.3959L167.418 28.3959C165.494 28.3959 163.649 27.632 162.289 26.2724C160.929 24.9128 160.165 23.0687 160.165 21.1459V18.7292C160.165 16.8064 160.929 14.9623 162.289 13.6027C163.649 12.243 165.494 11.4792 167.418 11.4792L203.681 11.4792C204.964 11.4792 206.194 11.9884 207.1 12.8949C208.007 13.8013 208.517 15.0307 208.517 16.3125V23.5625C208.517 24.8444 208.007 26.0738 207.1 26.9802C206.194 27.8866 204.964 28.3959 203.681 28.3959Z" stroke="#946948" stroke-miterlimit="10"/>
<path d="M203.681 21.1459C204.349 21.1459 204.89 20.6049 204.89 19.9375C204.89 19.2702 204.349 18.7292 203.681 18.7292C203.014 18.7292 202.473 19.2702 202.473 19.9375C202.473 20.6049 203.014 21.1459 203.681 21.1459Z" stroke="#946948" stroke-miterlimit="10"/>
<path d="M212.143 117.812H190.385V139.562H212.143V117.812Z" stroke="#946948" stroke-miterlimit="10"/>
<path d="M205.495 127.479C207.164 127.479 208.517 126.127 208.517 124.458C208.517 122.79 207.164 121.438 205.495 121.438C203.826 121.438 202.473 122.79 202.473 124.458C202.473 126.127 203.826 127.479 205.495 127.479Z" stroke="#946948" stroke-miterlimit="10"/>
<path d="M197.033 127.479C198.702 127.479 200.055 126.127 200.055 124.458C200.055 122.79 198.702 121.438 197.033 121.438C195.364 121.438 194.011 122.79 194.011 124.458C194.011 126.127 195.364 127.479 197.033 127.479Z" stroke="#946948" stroke-miterlimit="10"/>
<path d="M205.495 135.937C207.164 135.937 208.517 134.585 208.517 132.917C208.517 131.248 207.164 129.896 205.495 129.896C203.826 129.896 202.473 131.248 202.473 132.917C202.473 134.585 203.826 135.937 205.495 135.937Z" stroke="#946948" stroke-miterlimit="10"/>
<path d="M197.033 135.937C198.702 135.937 200.055 134.585 200.055 132.917C200.055 131.248 198.702 129.896 197.033 129.896C195.364 129.896 194.011 131.248 194.011 132.917C194.011 134.585 195.364 135.937 197.033 135.937Z" stroke="#946948" stroke-miterlimit="10"/>
<path d="M212.143 96.0625H190.385V117.812H212.143V96.0625Z" stroke="#946948" stroke-miterlimit="10"/>
<path d="M206.099 99.6875H196.429C195.094 99.6875 194.011 100.769 194.011 102.104V111.771C194.011 113.106 195.094 114.188 196.429 114.188H206.099C207.434 114.188 208.517 113.106 208.517 111.771V102.104C208.517 100.769 207.434 99.6875 206.099 99.6875Z" stroke="#946948" stroke-miterlimit="10"/>
<path d="M203.681 105.729C204.349 105.729 204.89 105.188 204.89 104.521C204.89 103.853 204.349 103.312 203.681 103.312C203.014 103.312 202.473 103.853 202.473 104.521C202.473 105.188 203.014 105.729 203.681 105.729Z" stroke="#946948" stroke-miterlimit="10"/>
<path d="M190.385 139.562V161.312H212.143V139.562H190.385Z" stroke="#946948" stroke-miterlimit="10"/>
<path d="M190.385 183.062H212.143V161.312H190.385V183.062Z" stroke="#946948" stroke-miterlimit="10"/>
<path d="M204.329 168.907H203.055L201.375 171.122L199.683 168.907H198.441L200.743 171.888L198.53 174.772H199.792L199.828 174.725L201.396 172.674L203.002 174.772H204.245L202.018 171.91L204.329 168.907Z" fill="#946948"/>
<path d="M168.627 117.812H190.385V96.0625H168.627V117.812Z" stroke="#946948" stroke-miterlimit="10"/>
<path d="M179.679 104.353H178.69L176.653 107.224L174.615 104.353H173.637V110.218H174.695V106.186L176.63 108.868L178.588 106.182V110.218H179.679V104.353Z" fill="#946948"/>
<path d="M183.692 104.233C182.888 104.241 182.12 104.568 181.556 105.141C180.993 105.714 180.68 106.488 180.687 107.292C180.679 107.691 180.751 108.087 180.898 108.459C181.046 108.83 181.266 109.167 181.546 109.452C181.826 109.737 182.16 109.963 182.528 110.117C182.897 110.272 183.292 110.351 183.692 110.35C184.149 110.354 184.601 110.254 185.014 110.059C185.427 109.864 185.791 109.578 186.078 109.222L186.156 109.133L185.431 108.46L185.349 108.547C185.155 108.79 184.91 108.988 184.631 109.127C184.353 109.267 184.048 109.344 183.736 109.354C183.213 109.322 182.721 109.093 182.36 108.713C181.998 108.333 181.793 107.831 181.786 107.307C181.779 106.783 181.971 106.276 182.322 105.887C182.674 105.498 183.16 105.256 183.682 105.21C183.997 105.217 184.306 105.291 184.589 105.427C184.873 105.563 185.124 105.759 185.326 106L185.413 106.092L186.112 105.351L186.034 105.269C185.745 104.934 185.385 104.667 184.981 104.487C184.576 104.307 184.137 104.219 183.694 104.228L183.692 104.233Z" fill="#946948"/>
<path d="M150.495 34.4375L128.736 56.1875" stroke="#251914" stroke-miterlimit="10"/>
<path d="M115.44 94.8541L134.78 114.187" stroke="#251914" stroke-miterlimit="10"/>
<path d="M92.4727 6.64581L111.813 25.9791" stroke="#251914" stroke-miterlimit="10"/>
<path d="M93.6815 46.5208L74.3408 27.1875" stroke="#251914" stroke-miterlimit="10"/>
<path d="M105.769 94.8541L85.22 114.187" stroke="#251914" stroke-miterlimit="10"/>
<path d="M59.8353 238.646L40.4946 219.312" stroke="#251914" stroke-miterlimit="10"/>
<path d="M195.824 290H212.747V277.917H195.824V290Z" fill="#251914"/>
<path d="M-4.3869e-05 290H24.1758V277.917H-4.3869e-05V290Z" fill="#251914"/>
<path d="M89.4506 290H113.626V277.917H89.4506V290Z" fill="#251914"/>
<path d="M130.549 280.333H195.824V277.917H130.549V280.333Z" fill="#251914"/>
<path d="M130.549 285.167H195.824V282.75H130.549V285.167Z" fill="#251914"/>
<path d="M130.549 290H195.824V287.583H130.549V290Z" fill="#251914"/>
<path d="M212.747 290H220L220 0H212.747L212.747 290Z" fill="#251914"/>
<path d="M-6.10352e-05 277.917H7.25269L7.25269 22.9583H-6.10352e-05L-6.10352e-05 277.917Z" fill="#251914"/>
<path d="M93.077 0H67.6924V7.25H93.077V0Z" fill="#251914"/>
<path d="M74.9451 15.7083H0V22.9583H74.9451V15.7083Z" fill="#251914"/>
<path d="M212.747 0H128.132V7.25H212.747V0Z" fill="#251914"/>
<path d="M106.374 290H130.55V277.917H106.374V290Z" fill="#251914"/>
<path d="M24.1757 280.333H89.4504V277.917H24.1757V280.333Z" fill="#251914"/>
<path d="M24.1757 285.167H89.4504V282.75H24.1757V285.167Z" fill="#251914"/>
<path d="M24.1757 290H89.4504V287.583H24.1757V290Z" fill="#251914"/>
<path d="M106.374 277.917H113.626L113.626 95.4583H106.374L106.374 277.917Z" fill="#251914"/>
<path d="M154.725 35.0417V7.25H149.89V35.0417H154.725Z" fill="#251914"/>
<path d="M154.725 90.625V60.4167H149.89V90.625H154.725Z" fill="#251914"/>
<path d="M212.747 95.4583V90.625H143.846V95.4583H212.747Z" fill="#251914"/>
<path d="M212.747 79.75V74.9167H184.945V79.75H212.747Z" fill="#251914"/>
<path d="M189.78 90.625V79.75H184.945V90.625H189.78Z" fill="#251914"/>
<path d="M70.1099 74.9166V70.0833H7.25272V74.9166H70.1099Z" fill="#251914"/>
<path d="M116.044 95.4583V90.625H103.956V95.4583H116.044Z" fill="#251914"/>
<path d="M74.9451 90.625V50.75H70.1099V90.625H74.9451Z" fill="#251914"/>
<path d="M74.945 22.9583H70.1099V27.7916H74.945V22.9583Z" fill="#251914"/>
<path d="M74.9451 15.7083V7.25H67.6923V15.7083H74.9451Z" fill="#251914"/>
<path d="M78.5715 95.4583V90.625H70.11V95.4583H78.5715Z" fill="#251914"/>
<path d="M106.374 245.292V238.042H59.2307V245.292H106.374Z" fill="#251914"/>
<path d="M13.2966 245.292V238.042H7.25267L7.25267 245.292H13.2966Z" fill="#251914"/>
<path d="M32.6375 245.292V238.042H30.2199V245.292H32.6375Z" fill="#251914"/>
<path d="M30.2197 245.292V242.875H13.2966V245.292H30.2197Z" fill="#251914"/>
<path d="M30.2197 240.458V238.042H13.2966V240.458H30.2197Z" fill="#251914"/>
<path d="M158.352 290H168.022V277.917H158.352V290Z" fill="#251914"/>
<path d="M149.981 252.119L147.906 252.764L147.608 251.759L150.295 250.832H151.206V261.906H149.981V252.119Z" fill="#946947"/>
<path d="M153.235 260.351L154.051 259.456C154.856 260.347 155.979 260.888 157.178 260.964C157.518 260.991 157.86 260.947 158.182 260.835C158.504 260.723 158.799 260.546 159.049 260.314C159.299 260.082 159.498 259.801 159.634 259.488C159.769 259.176 159.839 258.838 159.837 258.498C159.822 258.162 159.738 257.833 159.589 257.531C159.441 257.23 159.232 256.962 158.975 256.745C158.718 256.528 158.419 256.367 158.096 256.271C157.774 256.175 157.435 256.147 157.102 256.188C156.291 256.197 155.495 256.413 154.792 256.817L153.959 256.267L154.273 250.909H160.606V252.057H155.357L155.122 255.576C155.799 255.252 156.54 255.087 157.29 255.092C157.768 255.042 158.251 255.093 158.707 255.24C159.164 255.388 159.585 255.629 159.944 255.948C160.302 256.268 160.589 256.659 160.787 257.096C160.986 257.533 161.09 258.007 161.094 258.487C161.096 258.989 160.994 259.486 160.793 259.946C160.592 260.406 160.297 260.819 159.927 261.159C159.558 261.499 159.121 261.758 158.646 261.92C158.17 262.082 157.666 262.143 157.166 262.1C156.428 262.081 155.7 261.917 155.026 261.617C154.351 261.317 153.743 260.887 153.235 260.351Z" fill="#946947"/>
<path d="M162.835 260.257H164.286V261.906H162.835V260.257Z" fill="#946947"/>
<path d="M167.109 252.119L165.035 252.764L164.737 251.759L167.424 250.832H168.335V261.906H167.109V252.119Z" fill="#946947"/>
<path d="M170.319 260.131L171.214 259.33C171.585 259.837 172.07 260.248 172.629 260.532C173.189 260.816 173.808 260.964 174.436 260.964C174.738 260.99 175.043 260.953 175.331 260.857C175.619 260.76 175.884 260.605 176.109 260.402C176.335 260.199 176.516 259.951 176.642 259.675C176.767 259.399 176.835 259.1 176.84 258.796C176.84 257.429 175.567 256.675 173.76 256.675H173.053L172.801 255.937L176.274 252.025H170.9V250.909H177.924V251.82L174.467 255.654C176.384 255.811 178.094 256.742 178.094 258.78C178.081 259.243 177.975 259.698 177.781 260.119C177.587 260.539 177.309 260.915 176.966 261.225C176.622 261.535 176.218 261.772 175.78 261.922C175.342 262.071 174.878 262.13 174.416 262.095C173.627 262.115 172.844 261.947 172.131 261.606C171.419 261.265 170.798 260.759 170.319 260.131Z" fill="#946947"/>
<path d="M42.4285 270.563L46.4175 267.042C48.1158 265.549 48.7142 264.685 48.7142 263.586C48.7151 263.3 48.6576 263.017 48.5451 262.753C48.4327 262.49 48.2676 262.253 48.0602 262.056C47.8528 261.859 47.6072 261.706 47.3387 261.607C47.0701 261.508 46.7842 261.465 46.4985 261.481C45.8844 261.51 45.2887 261.7 44.7704 262.031C44.2522 262.361 43.8295 262.822 43.5442 263.366L42.6328 262.706C43.0082 261.985 43.5781 261.384 44.2781 260.97C44.978 260.556 45.7798 260.347 46.5928 260.366C47.0264 260.333 47.4622 260.39 47.873 260.533C48.2838 260.675 48.6608 260.901 48.9806 261.196C49.3004 261.491 49.5562 261.848 49.732 262.245C49.9078 262.643 50 263.073 50.0028 263.507C50.0028 265.11 49.1385 266.085 47.2225 267.781L44.284 270.389H50.114V271.52H42.4285V270.563Z" fill="#946947"/>
<path d="M51.8982 269.872H53.3487V271.521H51.8982V269.872Z" fill="#946947"/>
<path d="M54.9309 269.746L55.8266 268.945C56.1973 269.451 56.6823 269.863 57.2423 270.147C57.8023 270.431 58.4214 270.579 59.0493 270.578C59.3517 270.604 59.6562 270.568 59.9439 270.471C60.2317 270.374 60.4964 270.22 60.7218 270.016C60.9471 269.813 61.1283 269.566 61.2539 269.289C61.3796 269.013 61.4471 268.714 61.4523 268.411C61.4523 267.044 60.1795 266.29 58.3723 266.29H57.6652L57.4138 265.552L60.8866 261.639H55.5123V260.524H62.5366V261.436L59.0795 265.269C60.9966 265.426 62.7059 266.357 62.7059 268.395C62.6933 268.858 62.5868 269.313 62.3929 269.733C62.199 270.154 61.9217 270.53 61.5779 270.84C61.234 271.15 60.8308 271.387 60.3926 271.536C59.9544 271.686 59.4904 271.745 59.0287 271.709C58.239 271.73 57.4558 271.562 56.7434 271.221C56.0311 270.879 55.4099 270.374 54.9309 269.746Z" fill="#946947"/>
<path d="M64.1396 270.563L68.1287 267.044C69.827 265.552 70.4254 264.688 70.4254 263.588C70.4263 263.302 70.3687 263.019 70.2563 262.756C70.1438 262.493 69.9788 262.255 69.7714 262.058C69.5639 261.861 69.3184 261.709 69.0499 261.61C68.7813 261.511 68.4954 261.468 68.2096 261.483C67.5954 261.513 66.9996 261.703 66.4812 262.033C65.9628 262.364 65.5398 262.824 65.2542 263.368L64.3427 262.709C64.7182 261.987 65.2884 261.386 65.9885 260.972C66.6887 260.558 67.4908 260.349 68.3039 260.368C68.7376 260.335 69.1734 260.392 69.5842 260.535C69.9949 260.678 70.372 260.904 70.6918 261.198C71.0116 261.493 71.2673 261.85 71.4432 262.248C71.619 262.645 71.7112 263.075 71.7139 263.51C71.7139 265.112 70.8484 266.087 68.9337 267.784L65.9964 270.391H71.8263V271.522H64.1396V270.563Z" fill="#946947"/>
<path d="M59.3516 209.775L57.2773 210.42L56.9788 209.415L59.6647 208.487H60.5761V219.563H59.3516V209.775Z" fill="#946947"/>
<path d="M62.5549 217.788L63.4494 216.987C63.82 217.493 64.3048 217.905 64.8646 218.189C65.4243 218.473 66.0432 218.62 66.6709 218.62C66.9735 218.646 67.2783 218.61 67.5663 218.514C67.8543 218.417 68.1193 218.262 68.345 218.059C68.5706 217.856 68.752 217.608 68.8778 217.332C69.0036 217.055 69.0712 216.756 69.0764 216.452C69.0764 215.086 67.8035 214.332 65.9964 214.332H65.2892L65.0378 213.594L68.5106 209.681H63.1352V208.566H70.1606V209.478L66.7035 213.311C68.6206 213.468 70.3299 214.398 70.3299 216.437C70.3173 216.899 70.2108 217.355 70.0169 217.775C69.823 218.195 69.5458 218.572 69.2019 218.882C68.858 219.192 68.4548 219.429 68.0166 219.578C67.5784 219.727 67.1144 219.786 66.6527 219.751C65.863 219.771 65.0798 219.604 64.3674 219.263C63.655 218.921 63.0338 218.416 62.5549 217.788Z" fill="#946947"/>
<path d="M72.218 217.913H73.6686V219.563H72.218V217.913Z" fill="#946947"/>
<path d="M81.2549 216.955H75.4527L75.1372 216.061L81.3613 208.487H82.4492V215.918H84.162V216.955H82.4492V219.563H81.2549V216.955ZM81.2549 215.918V210.25L76.6373 215.918H81.2549Z" fill="#946947"/>
<path d="M85.7033 218.4L86.4286 217.442C87.1459 218.165 88.113 218.587 89.1314 218.62C91.0812 218.62 92.3952 216.671 92.3952 213.939V213.798C91.9745 214.466 91.3547 214.985 90.623 215.282C89.8914 215.579 89.0849 215.639 88.3173 215.453C87.5498 215.268 86.86 214.846 86.3452 214.247C85.8304 213.648 85.5167 212.903 85.4482 212.117C85.4484 211.607 85.5526 211.103 85.7546 210.635C85.9565 210.167 86.2518 209.745 86.6225 209.395C86.9933 209.045 87.4315 208.774 87.9105 208.599C88.3895 208.425 88.8991 208.349 89.4082 208.378C91.8258 208.378 93.6668 209.839 93.6668 213.798C93.6668 217.285 91.8125 219.751 89.094 219.751C87.8357 219.735 86.628 219.253 85.7033 218.4ZM92.1619 211.976C92.1512 211.625 92.0693 211.28 91.9212 210.962C91.773 210.644 91.5616 210.36 91.2999 210.126C91.0382 209.893 90.7317 209.715 90.399 209.603C90.0663 209.492 89.7144 209.449 89.3647 209.478C89.0169 209.464 88.67 209.521 88.3454 209.647C88.0208 209.773 87.7256 209.964 87.478 210.208C87.2304 210.453 87.0357 210.746 86.9062 211.069C86.7766 211.392 86.7148 211.738 86.7247 212.086C86.7306 212.425 86.8068 212.76 86.9487 213.069C87.0905 213.378 87.2949 213.654 87.5489 213.88C87.8029 214.106 88.101 214.276 88.4244 214.381C88.7477 214.486 89.0893 214.523 89.4276 214.489C89.7733 214.508 90.1194 214.458 90.4453 214.342C90.7713 214.225 91.0706 214.044 91.3253 213.81C91.5801 213.575 91.7852 213.292 91.9285 212.977C92.0717 212.662 92.1503 212.322 92.1594 211.976H92.1619Z" fill="#946947"/>
<path d="M94.2734 75.1342L95.0906 74.2376C95.8957 75.1297 97.0181 75.6714 98.2177 75.7468C98.5576 75.7739 98.8995 75.7302 99.2216 75.6184C99.5437 75.5066 99.8391 75.3292 100.089 75.0973C100.339 74.8655 100.538 74.5843 100.674 74.2716C100.809 73.9589 100.879 73.6214 100.877 73.2806C100.862 72.9448 100.778 72.6158 100.629 72.3141C100.481 72.0125 100.272 71.7448 100.015 71.5278C99.7585 71.3108 99.4596 71.1493 99.1373 71.0533C98.8151 70.9574 98.4765 70.9291 98.1428 70.9703C97.3316 70.9793 96.5363 71.196 95.8328 71.5998L94.9999 71.05L95.3142 65.6923H101.647V66.839H96.3949L96.1531 70.3588C96.8301 70.036 97.5716 69.8707 98.3217 69.8755C98.799 69.8255 99.2815 69.8757 99.7383 70.0231C100.195 70.1704 100.616 70.4115 100.974 70.731C101.332 71.0505 101.619 71.4412 101.818 71.8782C102.016 72.3152 102.12 72.7888 102.125 73.2685C102.127 73.7707 102.024 74.2677 101.823 74.728C101.622 75.1882 101.327 75.6015 100.958 75.9415C100.588 76.2815 100.152 76.5407 99.676 76.7025C99.2005 76.8643 98.6964 76.9253 98.196 76.8814C97.4594 76.8621 96.7338 76.6978 96.0608 76.398C95.3877 76.0982 94.7804 75.6687 94.2734 75.1342Z" fill="#946947"/>
<path d="M103.875 75.0375H105.325V76.6869H103.875V75.0375Z" fill="#946947"/>
<path d="M106.876 75.7311L110.865 72.2124C112.558 70.7189 113.162 69.8562 113.162 68.7554C113.163 68.4694 113.105 68.1863 112.992 67.9234C112.88 67.6605 112.715 67.4233 112.508 67.2263C112.3 67.0294 112.055 66.8768 111.786 66.778C111.518 66.6792 111.232 66.6362 110.946 66.6517C110.332 66.6814 109.737 66.871 109.218 67.2016C108.7 67.5322 108.277 67.9925 107.992 68.5367L107.081 67.8769C107.456 67.1557 108.026 66.554 108.726 66.1401C109.426 65.7262 110.227 65.5166 111.041 65.5352C111.474 65.5029 111.91 65.56 112.321 65.703C112.731 65.8459 113.108 66.0717 113.428 66.3662C113.748 66.6608 114.004 67.0178 114.18 67.4153C114.356 67.8128 114.448 68.2422 114.452 68.6769C114.452 70.2791 113.586 71.253 111.671 72.9495L108.731 75.5583H114.561V76.6893H106.876V75.7311Z" fill="#946947"/>
<path d="M115.959 73.7084C115.996 73.0748 116.236 72.47 116.643 71.9829C117.05 71.4958 117.603 71.1523 118.22 71.0029C117.683 70.8168 117.216 70.4724 116.879 70.0153C116.543 69.5582 116.352 69.0098 116.334 68.4425C116.334 66.7448 118.078 65.5352 120.09 65.5352C122.101 65.5352 123.845 66.7435 123.845 68.4739C123.822 69.036 123.629 69.578 123.293 70.0291C122.956 70.4803 122.492 70.8196 121.96 71.0029C122.578 71.1554 123.131 71.5013 123.538 71.9902C123.945 72.4791 124.186 73.0854 124.224 73.7205C124.224 75.5898 122.431 76.8464 120.09 76.8464C117.748 76.8464 115.959 75.5741 115.959 73.7084ZM122.97 73.677C122.97 72.4517 121.696 71.5878 120.093 71.5878C118.49 71.5878 117.216 72.4481 117.216 73.7084C117.216 74.8237 118.285 75.7626 120.092 75.7626C121.899 75.7626 122.969 74.8201 122.969 73.6733L122.97 73.677ZM122.608 68.5246C122.608 67.4371 121.52 66.6239 120.093 66.6239C118.667 66.6239 117.579 67.4251 117.579 68.5573C117.579 69.7523 118.695 70.5679 120.093 70.5679C120.394 70.6051 120.699 70.5811 120.99 70.4973C121.281 70.4136 121.552 70.2718 121.787 70.0806C122.022 69.8893 122.215 69.6526 122.356 69.3845C122.497 69.1165 122.582 68.8228 122.606 68.521L122.608 68.5246Z" fill="#946947"/>
<path d="M159.235 50.75L160.131 49.9489C160.501 50.4555 160.987 50.8675 161.546 51.1514C162.106 51.4353 162.726 51.583 163.353 51.5826C163.656 51.6084 163.96 51.5719 164.248 51.4752C164.536 51.3785 164.801 51.2237 165.026 51.0204C165.251 50.8171 165.432 50.5697 165.558 50.2935C165.684 50.0173 165.751 49.7182 165.757 49.4148C165.757 48.0482 164.484 47.2942 162.677 47.2942H161.969L161.718 46.5547L165.191 42.6433H159.817V41.528H166.841V42.4403L163.384 46.2731C165.301 46.4302 167.01 47.3606 167.01 49.3991C166.997 49.8618 166.891 50.317 166.697 50.7373C166.503 51.1576 166.226 51.5341 165.882 51.8441C165.538 52.154 165.135 52.3909 164.697 52.5404C164.259 52.6898 163.795 52.7487 163.333 52.7136C162.543 52.7335 161.76 52.5659 161.048 52.2246C160.335 51.8833 159.714 51.3779 159.235 50.75Z" fill="#946947"/>
<path d="M168.899 50.8708H170.35V52.5202H168.899V50.8708Z" fill="#946947"/>
<path d="M177.952 42.6542H171.901V41.522H179.366V42.4488L174.368 52.519H172.985L177.952 42.6542Z" fill="#946947"/>
<path d="M180.465 49.5417C180.503 48.9087 180.744 48.3046 181.151 47.8185C181.559 47.3323 182.111 46.9897 182.728 46.8411C182.191 46.6549 181.724 46.3106 181.387 45.8535C181.051 45.3963 180.861 44.8479 180.842 44.2806C180.842 42.5829 182.587 41.3734 184.598 41.3734C186.609 41.3734 188.354 42.5817 188.354 44.312C188.33 44.874 188.138 45.4159 187.801 45.867C187.465 46.3181 187.001 46.6575 186.469 46.8411C187.087 46.9937 187.64 47.3397 188.047 47.8286C188.454 48.3175 188.694 48.9237 188.732 49.5586C188.732 51.4279 186.939 52.6846 184.598 52.6846C182.257 52.6846 180.465 51.4074 180.465 49.5417ZM187.476 49.5115C187.476 48.2862 186.202 47.4223 184.599 47.4223C182.996 47.4223 181.723 48.2862 181.723 49.5417C181.723 50.6582 182.792 51.5959 184.599 51.5959C186.406 51.5959 187.475 50.6534 187.475 49.5066L187.476 49.5115ZM187.113 44.3591C187.113 43.2716 186.026 42.4572 184.599 42.4572C183.173 42.4572 182.085 43.2596 182.085 44.3906C182.085 45.5856 183.202 46.4012 184.599 46.4012C184.9 46.4384 185.205 46.4144 185.496 46.3306C185.787 46.2469 186.058 46.1051 186.293 45.9139C186.527 45.7226 186.721 45.4859 186.862 45.2178C187.003 44.9498 187.088 44.6561 187.112 44.3543L187.113 44.3591Z" fill="#946947"/>
<path d="M33.4617 51.5644L37.4507 48.0458C39.143 46.5523 39.7474 45.6895 39.7474 44.5887C39.7481 44.3027 39.6905 44.0196 39.578 43.7567C39.4654 43.4938 39.3004 43.2566 39.093 43.0596C38.8855 42.8627 38.6401 42.7102 38.3716 42.6113C38.1031 42.5125 37.8173 42.4695 37.5317 42.485C36.9167 42.514 36.32 42.7033 35.8007 43.0339C35.2814 43.3646 34.8576 43.8252 34.5713 44.37L33.6611 43.7103C34.0364 42.989 34.6063 42.3873 35.3062 41.9734C36.0061 41.5595 36.8081 41.35 37.6211 41.3685C38.0547 41.3362 38.4904 41.3933 38.901 41.5363C39.3116 41.6793 39.6885 41.905 40.0082 42.1996C40.3279 42.4942 40.5837 42.8512 40.7597 43.2487C40.9356 43.6462 41.028 44.0755 41.0311 44.5102C41.0311 46.1124 40.1656 47.0863 38.2509 48.7828L35.3135 51.3904H41.1435V52.5214H33.4617V51.5644Z" fill="#946947"/>
<path d="M42.9375 50.8708H44.3881V52.5202H42.9375V50.8708Z" fill="#946947"/>
<path d="M46.0173 50.9676L46.8345 50.071C47.6396 50.9631 48.762 51.5048 49.9616 51.5802C50.3015 51.6073 50.6433 51.5635 50.9655 51.4517C51.2876 51.34 51.583 51.1625 51.833 50.9307C52.0829 50.6989 52.282 50.4177 52.4177 50.105C52.5533 49.7923 52.6225 49.4548 52.621 49.114C52.606 48.7782 52.5217 48.4491 52.3734 48.1475C52.2251 47.8459 52.016 47.5781 51.7592 47.3612C51.5024 47.1442 51.2035 46.9826 50.8812 46.8867C50.559 46.7908 50.2204 46.7625 49.8867 46.8036C49.0755 46.8127 48.2802 47.0294 47.5767 47.4332L46.7438 46.8834L47.0581 41.5256H53.391V42.6723H48.1388L47.897 46.1922C48.574 45.8694 49.3155 45.7041 50.0656 45.7089C50.5429 45.6588 51.0254 45.7091 51.4822 45.8564C51.939 46.0037 52.3599 46.2449 52.718 46.5644C53.076 46.8838 53.3633 47.2746 53.5615 47.7116C53.7596 48.1486 53.8641 48.6221 53.8684 49.1019C53.8705 49.604 53.7678 50.1011 53.5669 50.5613C53.366 51.0216 53.0713 51.4349 52.7016 51.7749C52.332 52.1148 51.8954 52.374 51.4199 52.5359C50.9443 52.6977 50.4403 52.7587 49.9399 52.7148C49.2033 52.6953 48.4778 52.531 47.8047 52.2312C47.1317 51.9314 46.5243 51.502 46.0173 50.9676Z" fill="#946947"/>
<path d="M55.3625 47.3063C55.3625 43.9616 57.0549 41.3383 59.9354 41.3383C61.1379 41.3403 62.2969 41.7881 63.1883 42.595L62.463 43.5532C61.7675 42.8759 60.8409 42.4873 59.8701 42.4657C57.8889 42.4657 56.6487 44.4619 56.6487 47.2737V47.3208C56.9774 46.7917 57.4391 46.358 57.9878 46.0628C58.5365 45.7677 59.153 45.6215 59.7758 45.6388C60.2526 45.6006 60.7322 45.6597 61.1853 45.8126C61.6385 45.9655 62.0558 46.2089 62.4119 46.5281C62.768 46.8473 63.0553 47.2356 63.2566 47.6693C63.4578 48.1031 63.5686 48.5732 63.5823 49.0511C63.5759 49.5541 63.4674 50.0506 63.2632 50.5104C63.0591 50.9702 62.7637 51.3838 62.3948 51.7261C62.026 52.0683 61.5915 52.3321 61.1176 52.5014C60.6437 52.6708 60.1403 52.7421 59.638 52.7112C57.1757 52.7112 55.3625 51.2189 55.3625 47.3063ZM62.3083 49.0656C62.2977 48.7308 62.2183 48.4017 62.0752 48.0988C61.9321 47.796 61.7282 47.5257 61.4762 47.3049C61.2242 47.084 60.9295 46.9173 60.6104 46.8151C60.2913 46.7129 59.9546 46.6773 59.6211 46.7106C59.2739 46.6706 58.9222 46.7047 58.5892 46.8107C58.2562 46.9168 57.9495 47.0922 57.6893 47.3255C57.4292 47.5588 57.2216 47.8447 57.0802 48.1641C56.9388 48.4836 56.8668 48.8295 56.869 49.1788C56.8713 49.5282 56.9477 49.873 57.0932 50.1907C57.2387 50.5083 57.4499 50.7915 57.713 51.0214C57.9761 51.2514 58.2851 51.4229 58.6194 51.5246C58.9538 51.6264 59.3059 51.656 59.6525 51.6116C59.9982 51.6343 60.3448 51.5849 60.6703 51.4665C60.9958 51.3481 61.2931 51.1633 61.5433 50.9239C61.7935 50.6844 61.9912 50.3956 62.1237 50.0757C62.2562 49.7557 62.3207 49.4118 62.3131 49.0656H62.3083Z" fill="#946947"/>
</svg>
