<svg width="18" height="18" viewBox="0 0 18 18" fill="none" xmlns="http://www.w3.org/2000/svg">
<path d="M8.94818 0.00307189C8.90509 0.00684805 8.86275 0.0160799 8.82237 0.0305097L0.296077 3.27503C0.208995 3.30768 0.134354 3.36359 0.0816388 3.43565C0.028924 3.50771 0.000516123 3.59267 2.55575e-05 3.67973V14.3187C-0.000963121 14.407 0.0267539 14.4934 0.0795628 14.5668C0.132372 14.6402 0.207822 14.6972 0.296077 14.7303L8.82237 17.968C8.93631 18.0107 9.06369 18.0107 9.17763 17.968L17.7039 14.7303C17.7922 14.6972 17.8676 14.6402 17.9204 14.5668C17.9732 14.4934 18.001 14.407 18 14.3187V3.67973C17.9995 3.59267 17.9711 3.50771 17.9184 3.43565C17.8656 3.36359 17.791 3.30768 17.7039 3.27503L9.17763 0.0305097C9.10477 0.00392947 9.02593 -0.00549757 8.94818 0.00307189ZM9 0.915378L16.2829 3.67973L9 6.44409L1.71713 3.67973L9 0.915378H9ZM0.947391 4.33138L8.52632 7.21235V16.9048L0.947391 14.0238V4.33138ZM17.0526 4.33138V14.0238L9.47368 16.9048V7.21235L17.0526 4.33138Z" fill="#C7C7C7"/>
</svg>
