<svg width="18" height="18" viewBox="0 0 18 18" fill="none" xmlns="http://www.w3.org/2000/svg">
<path d="M17.64 0H11.16H0.36C0.161191 0 0 0.161016 0 0.36V4.68V9V13.32V17.64C0 17.839 0.161191 18 0.36 18H3.96H14.04H17.64C17.8388 18 18 17.839 18 17.64V13.32V9V4.68V0.36C18 0.161016 17.8388 0 17.64 0ZM14.04 12.96H9.36V9.36H14.04H17.28V12.96H14.04ZM3.96 12.96H0.72V9.36H3.96H8.64V12.96H3.96ZM11.16 5.04H13.68V8.64H9H4.32V5.04H11.16ZM17.28 5.04V8.64H14.4V5.04H17.28ZM3.6 8.64H0.72V5.04H3.6V8.64ZM17.28 4.32H14.04H11.52V0.72H17.28V4.32ZM0.72 0.72H10.8V4.32H3.96H0.72V0.72ZM0.72 13.68H3.6V17.28H0.72V13.68ZM4.32 13.68H9H13.68V17.28H4.32V13.68ZM17.28 17.28H14.4V13.68H17.28V17.28Z" fill="#C7C7C7"/>
</svg>
