<svg width="18" height="18" viewBox="0 0 18 18" fill="none" xmlns="http://www.w3.org/2000/svg">
<path d="M16.5511 0H1.44538C0.648297 0 0 0.648425 0 1.44567V16.5579C0 17.3516 0.648297 18 1.44538 18H16.5546C17.3517 18 18 17.3516 18 16.5543V1.44567C17.9965 0.648425 17.3482 0 16.5511 0ZM8.49872 17.0008H1.44538C1.20094 17.0008 1.00256 16.8024 1.00256 16.5579V1.44567C1.00256 1.20118 1.20094 1.00276 1.44538 1.00276H8.49872V17.0008ZM16.9974 16.5543C16.9974 16.7988 16.7991 16.9972 16.5546 16.9972H9.49774V0.999213H16.5511C16.7955 0.999213 16.9939 1.19764 16.9939 1.44213V16.5543H16.9974Z" fill="#C7C7C7"/>
<path d="M4.39587 11.6754C4.49507 11.7746 4.6226 11.8206 4.75014 11.8206C4.87767 11.8206 5.0052 11.771 5.1044 11.6754L6.6844 10.095C6.87924 9.90016 6.87924 9.5848 6.6844 9.38638C6.48956 9.1915 6.17426 9.1915 5.97588 9.38638L5.24964 10.1128V6.67929C5.24964 6.40292 5.02646 6.17969 4.75014 6.17969C4.47381 6.17969 4.25063 6.40292 4.25063 6.67929V10.1128L3.52439 9.38992C3.32955 9.19504 3.01426 9.19504 2.81587 9.38992C2.62103 9.58481 2.62103 9.90016 2.81587 10.0986L4.39587 11.6754Z" fill="#C7C7C7"/>
<path d="M13.5997 6.32496C13.5005 6.22575 13.373 6.17969 13.2454 6.17969C13.1179 6.17969 12.9904 6.22929 12.8912 6.32496L11.3112 7.90528C11.1163 8.10016 11.1163 8.41551 11.3112 8.61394C11.506 8.80882 11.8213 8.80882 12.0197 8.61394L12.7459 7.88756V11.321C12.7459 11.5974 12.9691 11.8206 13.2454 11.8206C13.5218 11.8206 13.7449 11.5974 13.7449 11.321V7.88756L14.4712 8.61394C14.666 8.80882 14.9813 8.80882 15.1797 8.61394C15.3745 8.41906 15.3745 8.1037 15.1797 7.90528L13.5997 6.32496Z" fill="#C7C7C7"/>
</svg>
