<svg width="22" height="18" viewBox="0 0 22 18" fill="none" xmlns="http://www.w3.org/2000/svg">
<path d="M10.3279 9.90034H3.60505L3.15955 9.34323L3.64171 7.40821C3.80396 6.7557 4.3888 6.30029 5.06255 6.30029H8.86946C9.54321 6.30029 10.128 6.7557 10.2903 7.40821L10.7715 9.34323L10.3279 9.90034ZM4.18896 9.00033H9.74396L9.40021 7.62241C9.3388 7.37401 9.12063 7.20031 8.87038 7.20031H5.06255C4.8123 7.20031 4.59413 7.37401 4.5318 7.62241L4.18896 9.00033Z" fill="#C7C7C7"/>
<path d="M18.3939 9.90034H11.672L11.2265 9.34323L11.7078 7.40821C11.8709 6.7557 12.4558 6.30029 13.1295 6.30029H16.9364C17.6102 6.30029 18.195 6.7557 18.3573 7.40821L18.8385 9.34323L18.3939 9.90034ZM12.2559 9.00033H17.8109L17.4681 7.62241C17.4058 7.37401 17.1876 7.20031 16.9373 7.20031H13.1304C12.8802 7.20031 12.6611 7.37401 12.5997 7.62241L12.2559 9.00033Z" fill="#C7C7C7"/>
<path d="M20.1667 18C19.1556 18 18.3333 17.1927 18.3333 16.2H3.66667C3.66667 17.1927 2.84442 18 1.83333 18C0.82225 18 0 17.1927 0 16.2V11.699C0 10.2113 1.23292 8.99988 2.74908 8.99988H19.2518C20.7671 8.99988 22 10.2104 22 11.6981V16.2C22 17.1927 21.1777 18 20.1667 18ZM3.20833 15.3H18.7917L19.25 15.75V16.2C19.25 16.6968 19.6607 17.1 20.1667 17.1C20.6727 17.1 21.0833 16.6968 21.0833 16.2V11.6981C21.0833 10.7063 20.262 9.89989 19.2518 9.89989H2.74908C1.73892 9.89989 0.916667 10.7063 0.916667 11.699V16.2C0.916667 16.6968 1.32825 17.1 1.83333 17.1C2.33842 17.1 2.75 16.6968 2.75 16.2V15.75L3.20833 15.3Z" fill="#C7C7C7"/>
<path d="M19.7084 9.90014H2.29171L1.83337 9.45013V1.80182C1.83337 0.808211 2.65654 0 3.66854 0H18.3315C19.3435 0 20.1667 0.808211 20.1667 1.80182V9.45013L19.7084 9.90014ZM2.75004 9.00012H19.25V1.80182C19.25 1.30502 18.8385 0.900012 18.3315 0.900012H3.66854C3.16254 0.900012 2.75004 1.30502 2.75004 1.80182V9.00012Z" fill="#C7C7C7"/>
<path d="M5.04171 3.60021C5.29484 3.60021 5.50004 3.39873 5.50004 3.1502C5.50004 2.90167 5.29484 2.7002 5.04171 2.7002C4.78858 2.7002 4.58337 2.90167 4.58337 3.1502C4.58337 3.39873 4.78858 3.60021 5.04171 3.60021Z" fill="#C7C7C7"/>
<path d="M16.9585 3.60021C17.2116 3.60021 17.4169 3.39873 17.4169 3.1502C17.4169 2.90167 17.2116 2.7002 16.9585 2.7002C16.7054 2.7002 16.5002 2.90167 16.5002 3.1502C16.5002 3.39873 16.7054 3.60021 16.9585 3.60021Z" fill="#C7C7C7"/>
</svg>
